<svg width="150" height="331" viewBox="0 0 150 331" fill="none" xmlns="http://www.w3.org/2000/svg">
<path d="M136.379 255.98C131.679 263.05 125.999 270.01 119.869 277.06C117.199 280.11 114.469 283.17 111.659 286.27C106.559 291.92 101.319 297.66 96.1889 303.6C93.4389 306.74 90.7389 309.93 88.0889 313.2C83.4789 318.89 79.0489 324.77 75.0189 330.93C70.9689 324.77 66.5589 318.88 61.9389 313.21C59.2989 309.94 56.5789 306.73 53.8489 303.58C48.6889 297.64 43.4489 291.9 38.3589 286.27C35.5489 283.17 32.8189 280.11 30.1489 277.06C24.0189 270.01 18.3389 263.04 13.6389 255.98C1.3389 237.52 -4.33111 218.4 5.53889 195.37C8.66889 210.77 15.9289 224.66 24.8789 237.3C27.3489 233.6 29.9189 229.98 32.5589 226.49C16.3089 204.42 7.61888 181.88 19.4589 154.19C23.6189 174.72 34.5089 192.8 47.2689 208.93C50.3089 205.61 53.5089 202.2 56.8289 198.7C29.5889 167.28 10.0789 137.05 26.9189 97.71C33.3989 129.6 54.0889 156.31 75.0089 179.32C95.9489 156.31 116.639 129.6 123.109 97.71C139.949 137.05 120.439 167.29 93.1989 198.71C87.3889 205.4 81.2489 212.12 75.0189 219.02C71.8189 222.58 68.5789 226.17 65.3789 229.8C60.2289 235.66 55.1189 241.66 50.2089 247.85C47.4389 251.36 44.7289 254.93 42.1189 258.58C44.9589 261.76 47.8189 264.83 50.6289 267.84C52.0889 265.88 53.5689 263.96 55.0789 262.09C56.2889 260.58 57.5589 259.06 58.8989 257.51C63.6789 251.97 69.1989 246.16 75.0189 240.04C78.1589 236.73 81.3989 233.31 84.6489 229.81C90.7689 223.22 96.9589 216.28 102.759 208.94C115.509 192.81 126.399 174.73 130.569 154.2C142.419 181.89 133.719 204.43 117.459 226.5C112.229 233.62 106.199 240.69 99.7989 247.86C96.9789 251.05 94.0589 254.27 91.1189 257.51C85.7889 263.43 80.3389 269.46 75.0089 275.69C72.2989 278.84 69.6489 282.05 67.0389 285.32C69.7489 288.3 72.2689 291.2 74.5389 294.03C74.6989 294.23 74.8589 294.42 75.0089 294.62C75.1489 294.42 75.3089 294.23 75.4689 294.03C77.7389 291.21 80.2589 288.3 82.9689 285.32C87.9689 279.8 93.5989 274 99.3889 267.85C102.199 264.84 105.069 261.77 107.899 258.59C113.899 251.9 119.829 244.82 125.149 237.3C134.099 224.66 141.359 210.78 144.489 195.38C154.349 218.41 148.679 237.53 136.389 255.99L136.379 255.98Z" fill="url(#paint0_linear_441_77)"/>
<path d="M75.01 56.97C61.06 86.8 56.04 118.1 74.06 154.19C25.12 112.64 33.64 70.3 58.24 26.94C63.27 18.07 68.98 9.16996 75 0.209961C81.02 9.16996 86.72 18.07 91.75 26.94C85.5 36.87 79.73 46.83 75 56.97H75.01Z" fill="url(#paint1_linear_441_77)"/>
<path d="M74.6875 92.3703C78.2975 90.6003 82.2275 88.8603 86.4775 87.1603C82.6275 83.3803 80.6775 79.0803 80.6375 74.2403C80.5975 69.7503 81.8275 64.9903 84.3275 59.9603C86.8275 54.9303 90.0075 50.9203 93.8475 47.9203C97.6875 44.9203 101.597 43.4003 105.557 43.3603C109.977 43.3203 113.637 44.6403 116.557 47.3103C119.467 49.9803 120.947 53.4903 120.987 57.8303C121.007 59.5303 120.727 61.2503 120.157 62.9903C119.587 64.7303 118.817 66.1203 117.847 67.1503C114.967 66.0803 112.898 65.2503 111.648 64.6603L112.347 60.8003C110.037 59.9903 107.858 59.6003 105.818 59.6103C103.098 59.6403 100.197 60.4903 97.1175 62.1803C94.0375 63.8703 91.0575 66.6203 88.1875 70.4203C89.4575 73.4703 91.3375 75.7803 93.8075 77.3703C96.2775 78.9503 99.9475 80.0203 104.828 80.5803C114.398 77.7703 123.557 75.7603 132.307 74.5503C134.367 76.7603 135.408 79.3403 135.438 82.2803C135.457 84.6603 134.687 86.7203 133.117 88.4503C131.547 90.1803 129.198 91.2203 126.068 91.5503L117.177 92.3703C107.667 93.2503 100.657 94.0903 96.1575 94.8903C91.6475 95.6903 85.2875 97.0903 77.0775 99.0903L74.6875 92.3703Z" fill="url(#paint2_linear_441_77)"/>
<defs>
<linearGradient id="paint0_linear_441_77" x1="270.719" y1="225.43" x2="-102.221" y2="201.29" gradientUnits="userSpaceOnUse">
<stop stop-color="#1D70B7"/>
<stop offset="1" stop-color="#191936"/>
</linearGradient>
<linearGradient id="paint1_linear_441_77" x1="279.46" y1="90.47" x2="-93.49" y2="66.32" gradientUnits="userSpaceOnUse">
<stop stop-color="#1D70B7"/>
<stop offset="1" stop-color="#191936"/>
</linearGradient>
<linearGradient id="paint2_linear_441_77" x1="279.918" y1="83.4103" x2="-93.0325" y2="59.2603" gradientUnits="userSpaceOnUse">
<stop stop-color="#1D70B7"/>
<stop offset="1" stop-color="#191936"/>
</linearGradient>
</defs>
</svg>
