<svg width="644" height="540" viewBox="0 0 644 540" fill="none" xmlns="http://www.w3.org/2000/svg">
<g clip-path="url(#clip0_441_74)">
<path d="M383.379 255.98C378.679 263.05 372.999 270.01 366.869 277.06C364.199 280.11 361.469 283.17 358.659 286.27C353.559 291.92 348.319 297.66 343.189 303.6C340.439 306.74 337.739 309.93 335.089 313.2C330.479 318.89 326.049 324.77 322.019 330.93C317.969 324.77 313.559 318.88 308.939 313.21C306.299 309.94 303.579 306.73 300.849 303.58C295.689 297.64 290.449 291.9 285.359 286.27C282.549 283.17 279.819 280.11 277.149 277.06C271.019 270.01 265.339 263.04 260.639 255.98C248.339 237.52 242.669 218.4 252.539 195.37C255.669 210.77 262.929 224.66 271.879 237.3C274.349 233.6 276.919 229.98 279.559 226.49C263.309 204.42 254.619 181.88 266.459 154.19C270.619 174.72 281.509 192.8 294.269 208.93C297.309 205.61 300.509 202.2 303.829 198.7C276.589 167.28 257.079 137.05 273.919 97.71C280.399 129.6 301.089 156.31 322.009 179.32C342.949 156.31 363.639 129.6 370.109 97.71C386.949 137.05 367.439 167.29 340.199 198.71C334.389 205.4 328.249 212.12 322.019 219.02C318.819 222.58 315.579 226.17 312.379 229.8C307.229 235.66 302.119 241.66 297.209 247.85C294.439 251.36 291.729 254.93 289.119 258.58C291.959 261.76 294.819 264.83 297.629 267.84C299.089 265.88 300.569 263.96 302.079 262.09C303.289 260.58 304.559 259.06 305.899 257.51C310.679 251.97 316.199 246.16 322.019 240.04C325.159 236.73 328.399 233.31 331.649 229.81C337.769 223.22 343.959 216.28 349.759 208.94C362.509 192.81 373.399 174.73 377.569 154.2C389.419 181.89 380.719 204.43 364.459 226.5C359.229 233.62 353.199 240.69 346.799 247.86C343.979 251.05 341.059 254.27 338.119 257.51C332.789 263.43 327.339 269.46 322.009 275.69C319.299 278.84 316.649 282.05 314.039 285.32C316.749 288.3 319.269 291.2 321.539 294.03C321.699 294.23 321.859 294.42 322.009 294.62C322.149 294.42 322.309 294.23 322.469 294.03C324.739 291.21 327.259 288.3 329.969 285.32C334.969 279.8 340.599 274 346.389 267.85C349.199 264.84 352.069 261.77 354.899 258.59C360.899 251.9 366.829 244.82 372.149 237.3C381.099 224.66 388.359 210.78 391.489 195.38C401.349 218.41 395.679 237.53 383.389 255.99L383.379 255.98Z" fill="url(#paint0_linear_441_74)"/>
<path d="M322.01 56.97C308.06 86.8 303.04 118.1 321.06 154.19C272.12 112.64 280.64 70.3 305.24 26.94C310.27 18.07 315.98 9.16996 322 0.209961C328.02 9.16996 333.72 18.07 338.75 26.94C332.5 36.87 326.73 46.83 322 56.97H322.01Z" fill="url(#paint1_linear_441_74)"/>
<path d="M321.688 92.3703C325.297 90.6003 329.227 88.8603 333.477 87.1603C329.627 83.3803 327.678 79.0803 327.638 74.2403C327.598 69.7503 328.828 64.9903 331.328 59.9603C333.828 54.9303 337.007 50.9203 340.847 47.9203C344.687 44.9203 348.597 43.4003 352.557 43.3603C356.977 43.3203 360.637 44.6403 363.557 47.3103C366.467 49.9803 367.947 53.4903 367.987 57.8303C368.007 59.5303 367.727 61.2503 367.157 62.9903C366.587 64.7303 365.817 66.1203 364.847 67.1503C361.967 66.0803 359.898 65.2503 358.648 64.6603L359.347 60.8003C357.037 59.9903 354.858 59.6003 352.818 59.6103C350.098 59.6403 347.197 60.4903 344.117 62.1803C341.037 63.8703 338.057 66.6203 335.188 70.4203C336.457 73.4703 338.337 75.7803 340.807 77.3703C343.277 78.9503 346.948 80.0203 351.828 80.5803C361.398 77.7703 370.557 75.7603 379.307 74.5503C381.367 76.7603 382.408 79.3403 382.438 82.2803C382.457 84.6603 381.687 86.7203 380.117 88.4503C378.547 90.1803 376.198 91.2203 373.068 91.5503L364.177 92.3703C354.667 93.2503 347.657 94.0903 343.157 94.8903C338.647 95.6903 332.288 97.0903 324.078 99.0903L321.688 92.3703Z" fill="url(#paint2_linear_441_74)"/>
<path d="M30.0075 382.861C31.4575 382.861 32.7475 382.291 33.8775 381.161C35.0075 380.081 35.5775 378.791 35.5775 377.291C35.5775 375.791 35.0075 374.431 33.8775 373.301C32.7475 372.221 31.4575 371.681 30.0075 371.681C28.5575 371.681 27.2175 372.221 26.1375 373.301C25.0075 374.461 24.4375 375.791 24.4375 377.291C24.4375 378.791 25.0075 380.111 26.1375 381.241C27.2675 382.321 28.5575 382.861 30.0075 382.861Z" fill="url(#paint3_linear_441_74)"/>
<path d="M25.5484 422.91C25.5484 426.57 24.4384 429.48 22.2284 431.64C20.1984 433.69 17.5684 434.72 14.3284 434.72C9.63845 434.69 5.16844 433.31 0.898438 430.57L5.59845 441.2C6.83845 441.81 8.12844 442.32 9.46844 442.74C12.0984 443.48 14.5485 443.85 16.8185 443.85C19.0785 443.88 21.3484 443.51 23.6084 442.74C26.7984 441.71 29.4184 440.07 31.4684 437.8C34.4984 434.51 36.0084 430.16 36.0084 424.76V390.04L25.5384 393.44V422.91H25.5484Z" fill="url(#paint4_linear_441_74)"/>
<path d="M87.7965 435.51C86.2965 435.51 85.0065 436.05 83.9265 437.13C82.7965 438.29 82.2266 439.62 82.2266 441.12C82.2266 442.62 82.7965 443.94 83.9265 445.07C85.0565 446.15 86.3465 446.69 87.7965 446.69C89.2465 446.69 90.5366 446.12 91.6666 444.99C92.7966 443.91 93.3665 442.62 93.3665 441.12C93.3665 439.62 92.7966 438.26 91.6666 437.13C90.5366 436.05 89.2465 435.51 87.7965 435.51Z" fill="url(#paint5_linear_441_74)"/>
<path d="M130.098 412.64C130.098 416.72 128.017 418.76 123.857 418.76H108.647V413.59C108.677 409.48 108.227 406.11 107.307 403.48C106.277 400.69 104.817 398.32 102.927 396.37C99.1875 392.55 94.3275 390.64 88.3475 390.64C84.0275 390.64 79.9875 391.69 76.2175 393.8C73.7975 395.14 71.6075 396.97 69.6575 399.29L76.1375 405.77C79.6875 402.08 83.7075 400.24 88.1875 400.24C92.1375 400.27 94.9175 402.11 96.5175 405.77C97.5475 408.14 98.0575 411.02 98.0575 414.42V418.76H59.4275C58.2975 418.76 57.4675 418.52 56.9375 418.05C56.2775 417.44 55.9475 416.47 55.9475 415.13V375.19L45.4375 378.59V416.75C45.4375 420.09 46.3475 422.79 48.1675 424.85C50.2175 427.12 53.2275 428.25 57.1775 428.25H124.207C129.157 428.25 133.097 426.96 136.017 424.38C139.017 421.67 140.517 417.91 140.517 413.12V390.05L130.087 393.45V412.65L130.098 412.64Z" fill="url(#paint6_linear_441_74)"/>
<path d="M127.019 382.861C128.489 382.861 129.799 382.291 130.929 381.161C132.059 380.081 132.629 378.791 132.629 377.291C132.629 375.791 132.059 374.431 130.929 373.301C129.769 372.221 128.469 371.681 127.019 371.681C125.569 371.681 124.229 372.221 123.149 373.301C122.019 374.461 121.449 375.791 121.449 377.291C121.449 378.791 122.019 380.111 123.149 381.241C124.279 382.321 125.569 382.861 127.019 382.861Z" fill="url(#paint7_linear_441_74)"/>
<path d="M180.269 412.64C180.269 416.72 178.189 418.76 174.029 418.76H170.079V380.09L159.649 383.49V418.76H152.499L147.559 428.24H174.339C179.289 428.24 183.229 426.95 186.149 424.37C189.179 421.66 190.689 417.9 190.689 413.11V375.19L180.259 378.59V412.64H180.269Z" fill="url(#paint8_linear_441_74)"/>
<path d="M163.129 439.74C163.129 439.13 163.339 438.59 163.759 438.12C164.099 437.86 164.429 437.7 164.749 437.65C165.589 437.62 166.319 437.91 166.919 438.52L169.569 435.6C168.199 434.26 166.619 433.59 164.829 433.59C162.169 433.59 160.349 434.88 159.379 437.46C159.119 438.3 158.959 439.47 158.909 440.98H156.969L154.719 445.01H169.769V440.98H163.129V439.75V439.74Z" fill="url(#paint9_linear_441_74)"/>
<path d="M200.137 428.24H210.647V375.2L200.137 378.59V428.24Z" fill="url(#paint10_linear_441_74)"/>
<path d="M390.649 412.88C390.679 416.8 388.709 418.77 384.759 418.77H378.599V392.82L368.169 396.22V418.77H356.359V395.98L345.929 399.38V418.77H326.499L326.579 390.05L316.069 393.45V418.77H304.019V392.82L293.589 396.22V418.77H281.779V396.06L271.149 399.3V422.01C271.149 425.8 269.779 428.78 267.039 430.94C264.459 433.02 261.059 434.06 256.849 434.06C247.419 434.09 242.219 429.81 241.249 421.22C241.139 420.14 241.089 417.26 241.089 412.57V409.25L230.699 412.33V417.35C230.799 423.43 231.939 428.61 234.099 432.87C235.599 435.87 237.869 438.3 240.889 440.14C244.999 442.61 250.399 443.85 257.089 443.85C262.749 443.85 267.559 442.82 271.509 440.77C274.669 439.11 277.169 436.85 279.019 433.98C279.859 432.64 280.639 430.73 281.349 428.25H385.159C390.219 428.25 394.209 426.79 397.129 423.87C399.759 421.24 401.079 417.79 401.079 413.52L401.199 390.06L390.649 393.46V412.89V412.88Z" fill="url(#paint11_linear_441_74)"/>
<path d="M415.969 366.35C415.969 365.74 416.179 365.2 416.599 364.73C416.939 364.47 417.269 364.31 417.589 364.26C418.429 364.26 419.159 364.56 419.759 365.17L422.449 362.25C421.049 360.91 419.459 360.24 417.669 360.24C415.039 360.24 413.229 361.53 412.259 364.11C411.999 364.93 411.839 366.09 411.789 367.59H409.809L407.559 371.62H422.609V367.59H415.969V366.37V366.35Z" fill="url(#paint12_linear_441_74)"/>
<path d="M410.637 428.24H421.147V375.2L410.637 378.59V428.24Z" fill="url(#paint13_linear_441_74)"/>
<path d="M467.277 383.41C468.727 383.41 470.017 382.841 471.147 381.711C472.277 380.631 472.847 379.341 472.847 377.841C472.847 376.341 472.277 375.021 471.147 373.891C470.017 372.811 468.727 372.271 467.277 372.271C465.827 372.271 464.487 372.811 463.407 373.891C462.277 375.021 461.707 376.341 461.707 377.841C461.707 379.341 462.277 380.66 463.407 381.79C464.537 382.87 465.827 383.41 467.277 383.41Z" fill="url(#paint14_linear_441_74)"/>
<path d="M452.707 383.41C454.177 383.41 455.487 382.841 456.617 381.711C457.747 380.631 458.317 379.341 458.317 377.841C458.317 376.341 457.747 375.021 456.617 373.891C455.457 372.811 454.157 372.271 452.707 372.271C451.257 372.271 449.917 372.811 448.837 373.891C447.707 375.021 447.137 376.341 447.137 377.841C447.137 379.341 447.707 380.66 448.837 381.79C449.967 382.87 451.257 383.41 452.707 383.41Z" fill="url(#paint15_linear_441_74)"/>
<path d="M523.487 397.36C520.117 395.25 516.497 394.2 512.627 394.2C511.447 394.2 510.097 394.25 508.597 394.36L526.137 375.99H512.467L488.447 402.93L494.687 408.42C498.897 404.76 503.457 402.93 508.357 402.93C512.627 402.93 516.077 404.39 518.707 407.31C521.027 409.84 522.187 413.04 522.187 416.91C522.187 417.23 522.157 417.84 522.107 418.77H480.787C478.837 418.8 477.327 418.32 476.247 417.35C475.117 416.32 474.547 414.81 474.547 412.81V390.65H458.787C453.627 390.65 449.557 392.02 446.577 394.76C442.997 398 441.207 402.83 441.207 409.26C441.207 415.29 442.697 419.95 445.667 423.24C448.567 426.58 452.607 428.26 457.797 428.26C460.617 428.26 463.127 427.72 465.337 426.64C466.627 425.98 467.997 425.01 469.447 423.72C472.897 426.75 476.427 428.26 480.037 428.26H532.297C533.007 423.44 533.367 419.77 533.367 417.24C533.367 413.58 532.857 410.43 531.827 407.8C530.217 403.32 527.447 399.85 523.497 397.37L523.487 397.36ZM464.037 409.17C464.037 409.91 463.957 410.79 463.797 411.82C463.557 413.53 463.287 414.77 462.967 415.53C462.047 417.69 460.347 418.77 457.867 418.77C455.387 418.77 453.617 417.66 452.697 415.45C452.067 413.95 451.747 411.88 451.747 409.25C451.747 406.33 452.167 404.11 453.007 402.61C454.137 400.66 456.137 399.69 459.007 399.69H464.027V409.17H464.037Z" fill="url(#paint16_linear_441_74)"/>
<path d="M632.559 393.441V412.871C632.589 416.791 630.619 418.761 626.669 418.761H620.509V392.811L610.079 396.211V418.761H598.269V395.971L587.839 399.371V418.761H569.429V392.491L558.959 395.891V422.911C558.959 426.571 557.849 429.481 555.639 431.641C553.609 433.691 550.979 434.721 547.739 434.721C543.049 434.691 538.579 433.311 534.309 430.571L539.009 441.201C540.249 441.811 541.539 442.321 542.879 442.741C545.509 443.481 547.959 443.851 550.229 443.851C553.999 443.881 557.469 442.971 560.659 441.131C563.429 439.551 565.579 437.391 567.139 434.651C567.959 433.171 568.629 431.041 569.149 428.251H627.059C632.119 428.251 636.109 426.791 639.029 423.871C641.659 421.241 642.979 417.791 642.979 413.521L643.099 390.061L632.549 393.461L632.559 393.441Z" fill="url(#paint17_linear_441_74)"/>
<path d="M616.719 379.93C616.719 381.43 617.289 382.76 618.419 383.92C619.549 385 620.839 385.54 622.289 385.54C623.739 385.54 625.069 384.97 626.199 383.84C627.329 382.73 627.899 381.43 627.899 379.93C627.899 378.43 627.329 377.11 626.199 375.98C625.039 374.9 623.739 374.36 622.289 374.36C620.839 374.36 619.499 374.9 618.419 375.98C617.289 377.11 616.719 378.43 616.719 379.93Z" fill="url(#paint18_linear_441_74)"/>
<path d="M614.777 372.98C616.177 372.98 617.387 372.47 618.407 371.44C619.487 370.36 620.027 369.12 620.027 367.73C620.027 366.34 619.487 365.041 618.407 364.021C617.377 362.991 616.167 362.48 614.777 362.48C613.387 362.48 612.167 362.991 611.147 364.021C610.067 365.101 609.527 366.34 609.527 367.73C609.527 369.12 610.067 370.36 611.147 371.44C612.177 372.47 613.387 372.98 614.777 372.98Z" fill="url(#paint19_linear_441_74)"/>
<path d="M607.747 385.54C609.197 385.54 610.487 384.97 611.617 383.84C612.747 382.73 613.317 381.43 613.317 379.93C613.317 378.43 612.747 377.11 611.617 375.98C610.487 374.9 609.197 374.36 607.747 374.36C606.217 374.36 604.917 374.9 603.837 375.98C602.707 377.11 602.137 378.43 602.137 379.93C602.137 381.43 602.707 382.76 603.837 383.92C604.997 385 606.297 385.54 607.747 385.54Z" fill="url(#paint20_linear_441_74)"/>
<path d="M186.12 486.62H164.2C158.38 486.65 153.96 487.98 150.93 490.61C147.59 493.59 145.91 498.06 145.91 504.04V538.64L156.46 535.48V506.05C156.46 502.65 157.16 500.2 158.55 498.7C159.79 497.28 161.78 496.57 164.51 496.57H170.59C169.56 499.1 169.05 501.82 169.05 504.75C169.05 510.52 170.75 515.07 174.15 518.42C177.18 521.5 181.17 523.04 186.12 523.04C189.54 523.04 192.55 522.29 195.13 520.79C197.39 519.42 199.22 517.55 200.62 515.18C202.33 512.23 203.19 508.78 203.19 504.83C203.19 499.12 201.52 494.59 198.17 491.24C195.09 488.16 191.07 486.62 186.12 486.62ZM191.06 511.86C189.93 513.1 188.26 513.72 186.04 513.72C181.56 513.72 179.33 510.81 179.33 504.99C179.33 502.46 179.76 500.47 180.63 499.03C181.82 496.98 183.65 495.95 186.12 495.95C188.59 495.95 190.47 496.98 191.65 499.03C192.49 500.48 192.91 502.47 192.91 504.99C192.91 508.12 192.29 510.42 191.05 511.86H191.06Z" fill="url(#paint21_linear_441_74)"/>
<path d="M212.66 523.04H223.17V469.99L212.66 473.39V523.04Z" fill="url(#paint22_linear_441_74)"/>
<path d="M304.582 478.21C306.052 478.21 307.362 477.64 308.492 476.51C309.622 475.43 310.192 474.14 310.192 472.64C310.192 471.14 309.622 469.82 308.492 468.69C307.332 467.61 306.032 467.07 304.582 467.07C303.132 467.07 301.792 467.61 300.712 468.69C299.582 469.82 299.012 471.14 299.012 472.64C299.012 474.14 299.582 475.46 300.712 476.59C301.842 477.67 303.132 478.21 304.582 478.21Z" fill="url(#paint23_linear_441_74)"/>
<path d="M290.04 478.21C291.49 478.21 292.78 477.64 293.91 476.51C295.04 475.43 295.61 474.14 295.61 472.64C295.61 471.14 295.04 469.82 293.91 468.69C292.78 467.61 291.49 467.07 290.04 467.07C288.51 467.07 287.21 467.61 286.13 468.69C285 469.82 284.43 471.14 284.43 472.64C284.43 474.14 285 475.46 286.13 476.59C287.29 477.67 288.59 478.21 290.04 478.21Z" fill="url(#paint24_linear_441_74)"/>
<path d="M320.582 480.1C322.032 480.1 323.322 479.53 324.452 478.4C325.582 477.29 326.152 475.99 326.152 474.49C326.152 472.99 325.582 471.67 324.452 470.54C323.322 469.46 322.032 468.92 320.582 468.92C319.132 468.92 317.792 469.46 316.712 470.54C315.582 471.67 315.012 472.99 315.012 474.49C315.012 475.99 315.582 477.32 316.712 478.48C317.842 479.56 319.132 480.1 320.582 480.1Z" fill="url(#paint25_linear_441_74)"/>
<path d="M335.149 480.1C336.599 480.1 337.889 479.53 339.019 478.4C340.149 477.29 340.719 475.99 340.719 474.49C340.719 472.99 340.149 471.67 339.019 470.54C337.889 469.46 336.599 468.92 335.149 468.92C333.619 468.92 332.319 469.46 331.239 470.54C330.109 471.67 329.539 472.99 329.539 474.49C329.539 475.99 330.109 477.32 331.239 478.48C332.399 479.56 333.699 480.1 335.149 480.1Z" fill="url(#paint26_linear_441_74)"/>
<path d="M404.358 507.68C404.388 511.6 402.418 513.57 398.468 513.57H392.308V487.62L381.878 491.02V513.57H370.068V490.78L359.638 494.18V513.57H347.198C345.248 513.6 343.738 513.15 342.658 512.23C341.528 511.15 340.958 509.61 340.958 507.61V487.31L330.528 490.71V507.46C330.528 511.54 328.528 513.58 324.528 513.58H310.738C311.558 512.29 312.178 511.13 312.598 510.1C313.418 508.05 313.818 505.75 313.818 503.23C313.788 498.12 312.408 493.95 309.668 490.71C306.668 487.21 302.518 485.46 297.228 485.46C292.538 485.46 288.758 486.8 285.888 489.49C282.438 492.78 280.718 497.44 280.718 503.47C280.718 507.13 281.718 510.5 283.718 513.58H265.188V500.82C265.188 495.97 263.538 492.09 260.248 489.17C257.458 486.64 253.978 485.38 249.818 485.38C244.968 485.38 240.548 487.21 236.548 490.87V500.67C240.288 496.77 243.908 494.82 247.408 494.82C249.458 494.82 251.158 495.44 252.508 496.68C254.008 498.05 254.758 499.89 254.758 502.21V513.59H236.308L230.148 523.07H292.678C294.258 523.07 295.768 522.94 297.218 522.67C298.458 522.93 299.948 523.07 301.678 523.07H325.028C329.158 523.07 332.768 521.75 335.848 519.12C338.898 521.75 342.428 523.07 346.438 523.07H398.858C403.918 523.07 407.908 521.61 410.828 518.69C413.458 516.06 414.778 512.61 414.778 508.34L414.898 484.88L404.348 488.28V507.71L404.358 507.68ZM301.378 510.09C300.328 511.59 298.968 512.75 297.308 513.57C297.148 513.65 296.528 513.31 295.448 512.54C294.708 512.01 294.008 511.34 293.358 510.53C291.728 508.37 290.908 505.83 290.908 502.91C290.908 500.75 291.418 498.95 292.448 497.5C293.638 495.87 295.228 495.05 297.228 495.05C299.178 495.08 300.748 495.81 301.928 497.26C303.058 498.71 303.628 500.57 303.628 502.83C303.628 505.46 302.878 507.89 301.378 510.1V510.09Z" fill="url(#paint27_linear_441_74)"/>
<path d="M437.461 534.541C437.461 533.931 437.671 533.391 438.091 532.921C438.431 532.661 438.761 532.501 439.081 532.451C439.921 532.421 440.651 532.711 441.251 533.321L443.901 530.401C442.531 529.061 440.951 528.391 439.161 528.391C436.501 528.391 434.681 529.681 433.711 532.261C433.451 533.101 433.291 534.271 433.241 535.781H431.301L429.051 539.811H444.101V535.781H437.461V534.551V534.541Z" fill="url(#paint28_linear_441_74)"/>
<path d="M487.668 473.39V507.44C487.668 511.52 485.588 513.56 481.428 513.56H471.278C469.328 513.59 467.818 513.11 466.738 512.14C465.608 511.11 465.038 509.6 465.038 507.6V470L454.608 473.4V507.45C454.608 511.53 452.608 513.57 448.608 513.57H444.418V474.9L433.988 478.3V513.57H426.838L421.898 523.05H449.118C453.248 523.05 456.858 521.73 459.938 519.1C462.988 521.73 466.518 523.05 470.528 523.05H481.788C486.738 523.05 490.678 521.76 493.598 519.18C496.598 516.47 498.098 512.71 498.098 507.92V470L487.668 473.4V473.39Z" fill="url(#paint29_linear_441_74)"/>
</g>
<defs>
<linearGradient id="paint0_linear_441_74" x1="517.719" y1="225.43" x2="144.779" y2="201.29" gradientUnits="userSpaceOnUse">
<stop stop-color="#1D70B7"/>
<stop offset="1" stop-color="#191936"/>
</linearGradient>
<linearGradient id="paint1_linear_441_74" x1="526.46" y1="90.47" x2="153.51" y2="66.32" gradientUnits="userSpaceOnUse">
<stop stop-color="#1D70B7"/>
<stop offset="1" stop-color="#191936"/>
</linearGradient>
<linearGradient id="paint2_linear_441_74" x1="526.918" y1="83.4103" x2="153.967" y2="59.2603" gradientUnits="userSpaceOnUse">
<stop stop-color="#1D70B7"/>
<stop offset="1" stop-color="#191936"/>
</linearGradient>
<linearGradient id="paint3_linear_441_74" x1="-36.0225" y1="321.681" x2="387.097" y2="677.891" gradientUnits="userSpaceOnUse">
<stop stop-color="#1D70B7"/>
<stop offset="1" stop-color="#191936"/>
</linearGradient>
<linearGradient id="paint4_linear_441_74" x1="-58.7316" y1="348.66" x2="364.378" y2="704.87" gradientUnits="userSpaceOnUse">
<stop stop-color="#1D70B7"/>
<stop offset="1" stop-color="#191936"/>
</linearGradient>
<linearGradient id="paint5_linear_441_74" x1="-43.5033" y1="330.57" x2="379.616" y2="686.779" gradientUnits="userSpaceOnUse">
<stop stop-color="#1D70B7"/>
<stop offset="1" stop-color="#191936"/>
</linearGradient>
<linearGradient id="paint6_linear_441_74" x1="-24.1625" y1="307.72" x2="398.947" y2="663.94" gradientUnits="userSpaceOnUse">
<stop stop-color="#1D70B7"/>
<stop offset="1" stop-color="#191936"/>
</linearGradient>
<linearGradient id="paint7_linear_441_74" x1="4.2293" y1="273.881" x2="427.339" y2="630.091" gradientUnits="userSpaceOnUse">
<stop stop-color="#1D70B7"/>
<stop offset="1" stop-color="#191936"/>
</linearGradient>
<linearGradient id="paint8_linear_441_74" x1="9.63858" y1="267.45" x2="432.758" y2="623.661" gradientUnits="userSpaceOnUse">
<stop stop-color="#1D70B7"/>
<stop offset="1" stop-color="#191936"/>
</linearGradient>
<linearGradient id="paint9_linear_441_74" x1="-12.2611" y1="293.46" x2="410.858" y2="649.67" gradientUnits="userSpaceOnUse">
<stop stop-color="#1D70B7"/>
<stop offset="1" stop-color="#191936"/>
</linearGradient>
<linearGradient id="paint10_linear_441_74" x1="24.6771" y1="249.58" x2="447.797" y2="605.789" gradientUnits="userSpaceOnUse">
<stop stop-color="#1D70B7"/>
<stop offset="1" stop-color="#191936"/>
</linearGradient>
<linearGradient id="paint11_linear_441_74" x1="65.9892" y1="200.51" x2="489.109" y2="556.73" gradientUnits="userSpaceOnUse">
<stop stop-color="#1D70B7"/>
<stop offset="1" stop-color="#191936"/>
</linearGradient>
<linearGradient id="paint12_linear_441_74" x1="128.779" y1="125.94" x2="551.889" y2="482.15" gradientUnits="userSpaceOnUse">
<stop stop-color="#1D70B7"/>
<stop offset="1" stop-color="#191936"/>
</linearGradient>
<linearGradient id="paint13_linear_441_74" x1="111.986" y1="145.87" x2="535.106" y2="502.081" gradientUnits="userSpaceOnUse">
<stop stop-color="#1D70B7"/>
<stop offset="1" stop-color="#191936"/>
</linearGradient>
<linearGradient id="paint14_linear_441_74" x1="145.068" y1="106.582" x2="568.187" y2="462.79" gradientUnits="userSpaceOnUse">
<stop stop-color="#1D70B7"/>
<stop offset="1" stop-color="#191936"/>
</linearGradient>
<linearGradient id="paint15_linear_441_74" x1="139.027" y1="113.752" x2="562.145" y2="469.962" gradientUnits="userSpaceOnUse">
<stop stop-color="#1D70B7"/>
<stop offset="1" stop-color="#191936"/>
</linearGradient>
<linearGradient id="paint16_linear_441_74" x1="142.017" y1="110.21" x2="565.127" y2="466.42" gradientUnits="userSpaceOnUse">
<stop stop-color="#1D70B7"/>
<stop offset="1" stop-color="#191936"/>
</linearGradient>
<linearGradient id="paint17_linear_441_74" x1="177.799" y1="67.7107" x2="600.909" y2="423.921" gradientUnits="userSpaceOnUse">
<stop stop-color="#1D70B7"/>
<stop offset="1" stop-color="#191936"/>
</linearGradient>
<linearGradient id="paint18_linear_441_74" x1="208.327" y1="31.4406" x2="631.437" y2="387.653" gradientUnits="userSpaceOnUse">
<stop stop-color="#1D70B7"/>
<stop offset="1" stop-color="#191936"/>
</linearGradient>
<linearGradient id="paint19_linear_441_74" x1="211.227" y1="27.9905" x2="634.347" y2="384.2" gradientUnits="userSpaceOnUse">
<stop stop-color="#1D70B7"/>
<stop offset="1" stop-color="#191936"/>
</linearGradient>
<linearGradient id="paint20_linear_441_74" x1="202.287" y1="38.6206" x2="625.397" y2="394.83" gradientUnits="userSpaceOnUse">
<stop stop-color="#1D70B7"/>
<stop offset="1" stop-color="#191936"/>
</linearGradient>
<linearGradient id="paint21_linear_441_74" x1="-46.0898" y1="331.27" x2="377.02" y2="687.48" gradientUnits="userSpaceOnUse">
<stop stop-color="#1D70B7"/>
<stop offset="1" stop-color="#191936"/>
</linearGradient>
<linearGradient id="paint22_linear_441_74" x1="-18.0001" y1="297.9" x2="405.11" y2="654.111" gradientUnits="userSpaceOnUse">
<stop stop-color="#1D70B7"/>
<stop offset="1" stop-color="#191936"/>
</linearGradient>
<linearGradient id="paint23_linear_441_74" x1="29.7219" y1="241.22" x2="452.832" y2="597.43" gradientUnits="userSpaceOnUse">
<stop stop-color="#1D70B7"/>
<stop offset="1" stop-color="#191936"/>
</linearGradient>
<linearGradient id="paint24_linear_441_74" x1="23.6699" y1="248.4" x2="446.79" y2="604.61" gradientUnits="userSpaceOnUse">
<stop stop-color="#1D70B7"/>
<stop offset="1" stop-color="#191936"/>
</linearGradient>
<linearGradient id="paint25_linear_441_74" x1="35.4213" y1="234.45" x2="458.531" y2="590.661" gradientUnits="userSpaceOnUse">
<stop stop-color="#1D70B7"/>
<stop offset="1" stop-color="#191936"/>
</linearGradient>
<linearGradient id="paint26_linear_441_74" x1="41.4593" y1="227.27" x2="464.569" y2="583.49" gradientUnits="userSpaceOnUse">
<stop stop-color="#1D70B7"/>
<stop offset="1" stop-color="#191936"/>
</linearGradient>
<linearGradient id="paint27_linear_441_74" x1="21.7284" y1="250.7" x2="444.848" y2="606.92" gradientUnits="userSpaceOnUse">
<stop stop-color="#1D70B7"/>
<stop offset="1" stop-color="#191936"/>
</linearGradient>
<linearGradient id="paint28_linear_441_74" x1="53.6511" y1="212.791" x2="476.771" y2="569.001" gradientUnits="userSpaceOnUse">
<stop stop-color="#1D70B7"/>
<stop offset="1" stop-color="#191936"/>
</linearGradient>
<linearGradient id="paint29_linear_441_74" x1="82.4087" y1="178.63" x2="505.519" y2="534.84" gradientUnits="userSpaceOnUse">
<stop stop-color="#1D70B7"/>
<stop offset="1" stop-color="#191936"/>
</linearGradient>
<clipPath id="clip0_441_74">
<rect width="644" height="540" fill="white"/>
</clipPath>
</defs>
</svg>
