<svg width="644" height="540" viewBox="0 0 644 540" fill="none" xmlns="http://www.w3.org/2000/svg">
<g clip-path="url(#clip0_452_74)">
<path d="M383.381 255.98C378.681 263.05 373.001 270.01 366.871 277.06C364.201 280.11 361.471 283.17 358.661 286.27C353.561 291.92 348.321 297.66 343.191 303.6C340.441 306.74 337.741 309.93 335.091 313.2C330.481 318.89 326.051 324.77 322.021 330.93C317.971 324.77 313.561 318.88 308.941 313.21C306.301 309.94 303.581 306.73 300.851 303.58C295.691 297.64 290.451 291.9 285.361 286.27C282.551 283.17 279.821 280.11 277.151 277.06C271.021 270.01 265.341 263.04 260.641 255.98C248.341 237.52 242.671 218.4 252.541 195.37C255.671 210.77 262.931 224.66 271.881 237.3C274.351 233.6 276.921 229.98 279.561 226.49C263.311 204.42 254.621 181.88 266.461 154.19C270.621 174.72 281.511 192.8 294.271 208.93C297.311 205.61 300.511 202.2 303.831 198.7C276.591 167.28 257.081 137.05 273.921 97.71C280.401 129.6 301.091 156.31 322.011 179.32C342.951 156.31 363.641 129.6 370.111 97.71C386.951 137.05 367.441 167.29 340.201 198.71C334.391 205.4 328.251 212.12 322.021 219.02C318.821 222.58 315.581 226.17 312.381 229.8C307.231 235.66 302.121 241.66 297.211 247.85C294.441 251.36 291.731 254.93 289.121 258.58C291.961 261.76 294.821 264.83 297.631 267.84C299.091 265.88 300.571 263.96 302.081 262.09C303.291 260.58 304.561 259.06 305.901 257.51C310.681 251.97 316.201 246.16 322.021 240.04C325.161 236.73 328.401 233.31 331.651 229.81C337.771 223.22 343.961 216.28 349.761 208.94C362.511 192.81 373.401 174.73 377.571 154.2C389.421 181.89 380.721 204.43 364.461 226.5C359.231 233.62 353.201 240.69 346.801 247.86C343.981 251.05 341.061 254.27 338.121 257.51C332.791 263.43 327.341 269.46 322.011 275.69C319.301 278.84 316.651 282.05 314.041 285.32C316.751 288.3 319.271 291.2 321.541 294.03C321.701 294.23 321.861 294.42 322.011 294.62C322.151 294.42 322.311 294.23 322.471 294.03C324.741 291.21 327.261 288.3 329.971 285.32C334.971 279.8 340.601 274 346.391 267.85C349.201 264.84 352.071 261.77 354.901 258.59C360.901 251.9 366.831 244.82 372.151 237.3C381.101 224.66 388.361 210.78 391.491 195.38C401.351 218.41 395.681 237.53 383.391 255.99L383.381 255.98Z" fill="white"/>
<path d="M322.01 56.97C308.06 86.8 303.04 118.1 321.06 154.19C272.12 112.64 280.64 70.3 305.24 26.94C310.27 18.07 315.98 9.16996 322 0.209961C328.02 9.16996 333.72 18.07 338.75 26.94C332.5 36.87 326.73 46.83 322 56.97H322.01Z" fill="white"/>
<path d="M321.691 92.3703C325.301 90.6003 329.231 88.8603 333.481 87.1603C329.631 83.3803 327.681 79.0803 327.641 74.2403C327.601 69.7503 328.831 64.9903 331.331 59.9603C333.831 54.9303 337.011 50.9203 340.851 47.9203C344.691 44.9203 348.601 43.4003 352.561 43.3603C356.981 43.3203 360.641 44.6403 363.561 47.3103C366.471 49.9803 367.951 53.4903 367.991 57.8303C368.011 59.5303 367.731 61.2503 367.161 62.9903C366.591 64.7303 365.821 66.1203 364.851 67.1503C361.971 66.0803 359.901 65.2503 358.651 64.6603L359.351 60.8003C357.041 59.9903 354.861 59.6003 352.821 59.6103C350.101 59.6403 347.201 60.4903 344.121 62.1803C341.041 63.8703 338.061 66.6203 335.191 70.4203C336.461 73.4703 338.341 75.7803 340.811 77.3703C343.281 78.9503 346.951 80.0203 351.831 80.5803C361.401 77.7703 370.561 75.7603 379.311 74.5503C381.371 76.7603 382.411 79.3403 382.441 82.2803C382.461 84.6603 381.691 86.7203 380.121 88.4503C378.551 90.1803 376.201 91.2203 373.071 91.5503L364.181 92.3703C354.671 93.2503 347.661 94.0903 343.161 94.8903C338.651 95.6903 332.291 97.0903 324.081 99.0903L321.691 92.3703Z" fill="white"/>
<path d="M30.0094 382.861C31.4594 382.861 32.7495 382.291 33.8795 381.161C35.0095 380.081 35.5795 378.791 35.5795 377.291C35.5795 375.791 35.0095 374.431 33.8795 373.301C32.7495 372.221 31.4594 371.681 30.0094 371.681C28.5594 371.681 27.2195 372.221 26.1395 373.301C25.0095 374.461 24.4395 375.791 24.4395 377.291C24.4395 378.791 25.0095 380.111 26.1395 381.241C27.2695 382.321 28.5594 382.861 30.0094 382.861Z" fill="white"/>
<path d="M25.5504 422.91C25.5504 426.57 24.4404 429.48 22.2304 431.64C20.2004 433.69 17.5704 434.72 14.3304 434.72C9.6404 434.69 5.17039 433.31 0.900391 430.57L5.6004 441.2C6.8404 441.81 8.1304 442.32 9.4704 442.74C12.1004 443.48 14.5504 443.85 16.8204 443.85C19.0804 443.88 21.3504 443.51 23.6104 442.74C26.8004 441.71 29.4204 440.07 31.4704 437.8C34.5004 434.51 36.0104 430.16 36.0104 424.76V390.04L25.5404 393.44V422.91H25.5504Z" fill="white"/>
<path d="M87.8004 435.51C86.3004 435.51 85.0105 436.05 83.9305 437.13C82.8005 438.29 82.2305 439.62 82.2305 441.12C82.2305 442.62 82.8005 443.94 83.9305 445.07C85.0605 446.15 86.3504 446.69 87.8004 446.69C89.2504 446.69 90.5405 446.12 91.6705 444.99C92.8005 443.91 93.3705 442.62 93.3705 441.12C93.3705 439.62 92.8005 438.26 91.6705 437.13C90.5405 436.05 89.2504 435.51 87.8004 435.51Z" fill="white"/>
<path d="M130.099 412.64C130.099 416.72 128.019 418.76 123.859 418.76H108.649V413.59C108.679 409.48 108.229 406.11 107.309 403.48C106.279 400.69 104.819 398.32 102.929 396.37C99.1894 392.55 94.3295 390.64 88.3495 390.64C84.0295 390.64 79.9895 391.69 76.2195 393.8C73.7995 395.14 71.6095 396.97 69.6595 399.29L76.1395 405.77C79.6895 402.08 83.7095 400.24 88.1895 400.24C92.1395 400.27 94.9194 402.11 96.5194 405.77C97.5494 408.14 98.0594 411.02 98.0594 414.42V418.76H59.4294C58.2994 418.76 57.4695 418.52 56.9395 418.05C56.2795 417.44 55.9495 416.47 55.9495 415.13V375.19L45.4395 378.59V416.75C45.4395 420.09 46.3495 422.79 48.1695 424.85C50.2195 427.12 53.2294 428.25 57.1794 428.25H124.209C129.159 428.25 133.099 426.96 136.019 424.38C139.019 421.67 140.519 417.91 140.519 413.12V390.05L130.089 393.45V412.65L130.099 412.64Z" fill="white"/>
<path d="M127.021 382.861C128.491 382.861 129.801 382.291 130.931 381.161C132.061 380.081 132.631 378.791 132.631 377.291C132.631 375.791 132.061 374.431 130.931 373.301C129.771 372.221 128.471 371.681 127.021 371.681C125.571 371.681 124.231 372.221 123.151 373.301C122.021 374.461 121.451 375.791 121.451 377.291C121.451 378.791 122.021 380.111 123.151 381.241C124.281 382.321 125.571 382.861 127.021 382.861Z" fill="white"/>
<path d="M180.271 412.64C180.271 416.72 178.191 418.76 174.031 418.76H170.081V380.09L159.651 383.49V418.76H152.501L147.561 428.24H174.341C179.291 428.24 183.231 426.95 186.151 424.37C189.181 421.66 190.691 417.9 190.691 413.11V375.19L180.261 378.59V412.64H180.271Z" fill="white"/>
<path d="M163.131 439.74C163.131 439.13 163.341 438.59 163.761 438.12C164.101 437.86 164.431 437.7 164.751 437.65C165.591 437.62 166.321 437.91 166.921 438.52L169.571 435.6C168.201 434.26 166.621 433.59 164.831 433.59C162.171 433.59 160.351 434.88 159.381 437.46C159.121 438.3 158.961 439.47 158.911 440.98H156.971L154.721 445.01H169.771V440.98H163.131V439.75V439.74Z" fill="white"/>
<path d="M200.141 428.24H210.651V375.2L200.141 378.59V428.24Z" fill="white"/>
<path d="M390.651 412.88C390.681 416.8 388.711 418.77 384.761 418.77H378.601V392.82L368.171 396.22V418.77H356.361V395.98L345.931 399.38V418.77H326.501L326.581 390.05L316.071 393.45V418.77H304.021V392.82L293.591 396.22V418.77H281.781V396.06L271.151 399.3V422.01C271.151 425.8 269.781 428.78 267.041 430.94C264.461 433.02 261.061 434.06 256.851 434.06C247.421 434.09 242.221 429.81 241.251 421.22C241.141 420.14 241.091 417.26 241.091 412.57V409.25L230.701 412.33V417.35C230.801 423.43 231.941 428.61 234.101 432.87C235.601 435.87 237.871 438.3 240.891 440.14C245.001 442.61 250.401 443.85 257.091 443.85C262.751 443.85 267.561 442.82 271.511 440.77C274.671 439.11 277.171 436.85 279.021 433.98C279.861 432.64 280.641 430.73 281.351 428.25H385.161C390.221 428.25 394.211 426.79 397.131 423.87C399.761 421.24 401.081 417.79 401.081 413.52L401.201 390.06L390.651 393.46V412.89V412.88Z" fill="white"/>
<path d="M415.971 366.35C415.971 365.74 416.181 365.2 416.601 364.73C416.941 364.47 417.271 364.31 417.591 364.26C418.431 364.26 419.161 364.56 419.761 365.17L422.451 362.25C421.051 360.91 419.461 360.24 417.671 360.24C415.041 360.24 413.231 361.53 412.261 364.11C412.001 364.93 411.841 366.09 411.791 367.59H409.811L407.561 371.62H422.611V367.59H415.971V366.37V366.35Z" fill="white"/>
<path d="M410.641 428.24H421.151V375.2L410.641 378.59V428.24Z" fill="white"/>
<path d="M467.281 383.41C468.731 383.41 470.021 382.841 471.151 381.711C472.281 380.631 472.851 379.341 472.851 377.841C472.851 376.341 472.281 375.021 471.151 373.891C470.021 372.811 468.731 372.271 467.281 372.271C465.831 372.271 464.491 372.811 463.411 373.891C462.281 375.021 461.711 376.341 461.711 377.841C461.711 379.341 462.281 380.66 463.411 381.79C464.541 382.87 465.831 383.41 467.281 383.41Z" fill="white"/>
<path d="M452.711 383.41C454.181 383.41 455.491 382.841 456.621 381.711C457.751 380.631 458.321 379.341 458.321 377.841C458.321 376.341 457.751 375.021 456.621 373.891C455.461 372.811 454.161 372.271 452.711 372.271C451.261 372.271 449.921 372.811 448.841 373.891C447.711 375.021 447.141 376.341 447.141 377.841C447.141 379.341 447.711 380.66 448.841 381.79C449.971 382.87 451.261 383.41 452.711 383.41Z" fill="white"/>
<path d="M523.491 397.36C520.121 395.25 516.501 394.2 512.631 394.2C511.451 394.2 510.101 394.25 508.601 394.36L526.141 375.99H512.471L488.451 402.93L494.691 408.42C498.901 404.76 503.461 402.93 508.361 402.93C512.631 402.93 516.081 404.39 518.711 407.31C521.031 409.84 522.191 413.04 522.191 416.91C522.191 417.23 522.161 417.84 522.111 418.77H480.791C478.841 418.8 477.331 418.32 476.251 417.35C475.121 416.32 474.551 414.81 474.551 412.81V390.65H458.791C453.631 390.65 449.561 392.02 446.581 394.76C443.001 398 441.211 402.83 441.211 409.26C441.211 415.29 442.701 419.95 445.671 423.24C448.571 426.58 452.611 428.26 457.801 428.26C460.621 428.26 463.131 427.72 465.341 426.64C466.631 425.98 468.001 425.01 469.451 423.72C472.901 426.75 476.431 428.26 480.041 428.26H532.301C533.011 423.44 533.371 419.77 533.371 417.24C533.371 413.58 532.861 410.43 531.831 407.8C530.221 403.32 527.451 399.85 523.501 397.37L523.491 397.36ZM464.041 409.17C464.041 409.91 463.961 410.79 463.801 411.82C463.561 413.53 463.291 414.77 462.971 415.53C462.051 417.69 460.351 418.77 457.871 418.77C455.391 418.77 453.621 417.66 452.701 415.45C452.071 413.95 451.751 411.88 451.751 409.25C451.751 406.33 452.171 404.11 453.011 402.61C454.141 400.66 456.141 399.69 459.011 399.69H464.031V409.17H464.041Z" fill="white"/>
<path d="M632.561 393.441V412.871C632.591 416.791 630.621 418.761 626.671 418.761H620.511V392.811L610.081 396.211V418.761H598.271V395.971L587.841 399.371V418.761H569.431V392.491L558.961 395.891V422.911C558.961 426.571 557.851 429.481 555.641 431.641C553.611 433.691 550.981 434.721 547.741 434.721C543.051 434.691 538.581 433.311 534.311 430.571L539.011 441.201C540.251 441.811 541.541 442.321 542.881 442.741C545.511 443.481 547.961 443.851 550.231 443.851C554.001 443.881 557.471 442.971 560.661 441.131C563.431 439.551 565.581 437.391 567.141 434.651C567.961 433.171 568.631 431.041 569.151 428.251H627.061C632.121 428.251 636.111 426.791 639.031 423.871C641.661 421.241 642.981 417.791 642.981 413.521L643.101 390.061L632.551 393.461L632.561 393.441Z" fill="white"/>
<path d="M616.721 379.93C616.721 381.43 617.291 382.76 618.421 383.92C619.551 385 620.841 385.54 622.291 385.54C623.741 385.54 625.071 384.97 626.201 383.84C627.331 382.73 627.901 381.43 627.901 379.93C627.901 378.43 627.331 377.11 626.201 375.98C625.041 374.9 623.741 374.36 622.291 374.36C620.841 374.36 619.501 374.9 618.421 375.98C617.291 377.11 616.721 378.43 616.721 379.93Z" fill="white"/>
<path d="M614.781 372.98C616.181 372.98 617.391 372.47 618.411 371.44C619.491 370.36 620.031 369.12 620.031 367.73C620.031 366.34 619.491 365.041 618.411 364.021C617.381 362.991 616.171 362.48 614.781 362.48C613.391 362.48 612.171 362.991 611.151 364.021C610.071 365.101 609.531 366.34 609.531 367.73C609.531 369.12 610.071 370.36 611.151 371.44C612.181 372.47 613.391 372.98 614.781 372.98Z" fill="white"/>
<path d="M607.751 385.54C609.201 385.54 610.491 384.97 611.621 383.84C612.751 382.73 613.321 381.43 613.321 379.93C613.321 378.43 612.751 377.11 611.621 375.98C610.491 374.9 609.201 374.36 607.751 374.36C606.221 374.36 604.921 374.9 603.841 375.98C602.711 377.11 602.141 378.43 602.141 379.93C602.141 381.43 602.711 382.76 603.841 383.92C605.001 385 606.301 385.54 607.751 385.54Z" fill="white"/>
<path d="M186.12 486.62H164.2C158.38 486.65 153.96 487.98 150.93 490.61C147.59 493.59 145.91 498.06 145.91 504.04V538.64L156.46 535.48V506.05C156.46 502.65 157.16 500.2 158.55 498.7C159.79 497.28 161.78 496.57 164.51 496.57H170.59C169.56 499.1 169.05 501.82 169.05 504.75C169.05 510.52 170.75 515.07 174.15 518.42C177.18 521.5 181.17 523.04 186.12 523.04C189.54 523.04 192.55 522.29 195.13 520.79C197.39 519.42 199.22 517.55 200.62 515.18C202.33 512.23 203.19 508.78 203.19 504.83C203.19 499.12 201.52 494.59 198.17 491.24C195.09 488.16 191.07 486.62 186.12 486.62ZM191.06 511.86C189.93 513.1 188.26 513.72 186.04 513.72C181.56 513.72 179.33 510.81 179.33 504.99C179.33 502.46 179.76 500.47 180.63 499.03C181.82 496.98 183.65 495.95 186.12 495.95C188.59 495.95 190.47 496.98 191.65 499.03C192.49 500.48 192.91 502.47 192.91 504.99C192.91 508.12 192.29 510.42 191.05 511.86H191.06Z" fill="white"/>
<path d="M212.66 523.04H223.17V469.99L212.66 473.39V523.04Z" fill="white"/>
<path d="M304.58 478.21C306.05 478.21 307.36 477.64 308.49 476.51C309.62 475.43 310.19 474.14 310.19 472.64C310.19 471.14 309.62 469.82 308.49 468.69C307.33 467.61 306.03 467.07 304.58 467.07C303.13 467.07 301.79 467.61 300.71 468.69C299.58 469.82 299.01 471.14 299.01 472.64C299.01 474.14 299.58 475.46 300.71 476.59C301.84 477.67 303.13 478.21 304.58 478.21Z" fill="white"/>
<path d="M290.04 478.21C291.49 478.21 292.78 477.64 293.91 476.51C295.04 475.43 295.61 474.14 295.61 472.64C295.61 471.14 295.04 469.82 293.91 468.69C292.78 467.61 291.49 467.07 290.04 467.07C288.51 467.07 287.21 467.61 286.13 468.69C285 469.82 284.43 471.14 284.43 472.64C284.43 474.14 285 475.46 286.13 476.59C287.29 477.67 288.59 478.21 290.04 478.21Z" fill="white"/>
<path d="M320.58 480.1C322.03 480.1 323.32 479.53 324.45 478.4C325.58 477.29 326.15 475.99 326.15 474.49C326.15 472.99 325.58 471.67 324.45 470.54C323.32 469.46 322.03 468.92 320.58 468.92C319.13 468.92 317.79 469.46 316.71 470.54C315.58 471.67 315.01 472.99 315.01 474.49C315.01 475.99 315.58 477.32 316.71 478.48C317.84 479.56 319.13 480.1 320.58 480.1Z" fill="white"/>
<path d="M335.151 480.1C336.601 480.1 337.891 479.53 339.021 478.4C340.151 477.29 340.721 475.99 340.721 474.49C340.721 472.99 340.151 471.67 339.021 470.54C337.891 469.46 336.601 468.92 335.151 468.92C333.621 468.92 332.321 469.46 331.241 470.54C330.111 471.67 329.541 472.99 329.541 474.49C329.541 475.99 330.111 477.32 331.241 478.48C332.401 479.56 333.701 480.1 335.151 480.1Z" fill="white"/>
<path d="M404.36 507.68C404.39 511.6 402.42 513.57 398.47 513.57H392.31V487.62L381.88 491.02V513.57H370.07V490.78L359.64 494.18V513.57H347.2C345.25 513.6 343.74 513.15 342.66 512.23C341.53 511.15 340.96 509.61 340.96 507.61V487.31L330.53 490.71V507.46C330.53 511.54 328.53 513.58 324.53 513.58H310.74C311.56 512.29 312.18 511.13 312.6 510.1C313.42 508.05 313.82 505.75 313.82 503.23C313.79 498.12 312.41 493.95 309.67 490.71C306.67 487.21 302.52 485.46 297.23 485.46C292.54 485.46 288.76 486.8 285.89 489.49C282.44 492.78 280.72 497.44 280.72 503.47C280.72 507.13 281.72 510.5 283.72 513.58H265.19V500.82C265.19 495.97 263.54 492.09 260.25 489.17C257.46 486.64 253.98 485.38 249.82 485.38C244.97 485.38 240.55 487.21 236.55 490.87V500.67C240.29 496.77 243.91 494.82 247.41 494.82C249.46 494.82 251.16 495.44 252.51 496.68C254.01 498.05 254.76 499.89 254.76 502.21V513.59H236.31L230.15 523.07H292.68C294.26 523.07 295.77 522.94 297.22 522.67C298.46 522.93 299.95 523.07 301.68 523.07H325.03C329.16 523.07 332.77 521.75 335.85 519.12C338.9 521.75 342.43 523.07 346.44 523.07H398.86C403.92 523.07 407.91 521.61 410.83 518.69C413.46 516.06 414.78 512.61 414.78 508.34L414.9 484.88L404.35 488.28V507.71L404.36 507.68ZM301.38 510.09C300.33 511.59 298.97 512.75 297.31 513.57C297.15 513.65 296.53 513.31 295.45 512.54C294.71 512.01 294.01 511.34 293.36 510.53C291.73 508.37 290.91 505.83 290.91 502.91C290.91 500.75 291.42 498.95 292.45 497.5C293.64 495.87 295.23 495.05 297.23 495.05C299.18 495.08 300.75 495.81 301.93 497.26C303.06 498.71 303.63 500.57 303.63 502.83C303.63 505.46 302.88 507.89 301.38 510.1V510.09Z" fill="white"/>
<path d="M437.461 534.541C437.461 533.931 437.671 533.391 438.091 532.921C438.431 532.661 438.761 532.501 439.081 532.451C439.921 532.421 440.651 532.711 441.251 533.321L443.901 530.401C442.531 529.061 440.951 528.391 439.161 528.391C436.501 528.391 434.681 529.681 433.711 532.261C433.451 533.101 433.291 534.271 433.241 535.781H431.301L429.051 539.811H444.101V535.781H437.461V534.551V534.541Z" fill="white"/>
<path d="M487.67 473.39V507.44C487.67 511.52 485.59 513.56 481.43 513.56H471.28C469.33 513.59 467.82 513.11 466.74 512.14C465.61 511.11 465.04 509.6 465.04 507.6V470L454.61 473.4V507.45C454.61 511.53 452.61 513.57 448.61 513.57H444.42V474.9L433.99 478.3V513.57H426.84L421.9 523.05H449.12C453.25 523.05 456.86 521.73 459.94 519.1C462.99 521.73 466.52 523.05 470.53 523.05H481.79C486.74 523.05 490.68 521.76 493.6 519.18C496.6 516.47 498.1 512.71 498.1 507.92V470L487.67 473.4V473.39Z" fill="white"/>
</g>
<defs>
<clipPath id="clip0_452_74">
<rect width="644" height="540" fill="white"/>
</clipPath>
</defs>
</svg>
