<svg width="833" height="331" viewBox="0 0 833 331" fill="none" xmlns="http://www.w3.org/2000/svg">
<path d="M819.379 255.77C814.679 262.84 808.999 269.8 802.869 276.85C800.199 279.9 797.469 282.96 794.659 286.06C789.559 291.71 784.319 297.45 779.189 303.39C776.439 306.53 773.739 309.72 771.089 312.99C766.479 318.68 762.049 324.56 758.019 330.72C753.969 324.56 749.559 318.67 744.939 313C742.299 309.73 739.579 306.52 736.849 303.37C731.689 297.43 726.449 291.69 721.359 286.06C718.549 282.96 715.819 279.9 713.149 276.85C707.019 269.8 701.339 262.83 696.639 255.77C684.339 237.31 678.669 218.19 688.539 195.16C691.669 210.56 698.929 224.45 707.879 237.09C710.349 233.39 712.919 229.77 715.559 226.28C699.309 204.21 690.619 181.67 702.459 153.98C706.619 174.51 717.509 192.59 730.269 208.72C733.309 205.4 736.509 201.99 739.829 198.49C712.589 167.07 693.079 136.84 709.919 97.5C716.399 129.39 737.089 156.1 758.009 179.11C778.949 156.1 799.639 129.39 806.109 97.5C822.949 136.84 803.439 167.08 776.199 198.5C770.389 205.19 764.249 211.91 758.019 218.81C754.819 222.37 751.579 225.96 748.379 229.59C743.229 235.45 738.119 241.45 733.209 247.64C730.439 251.15 727.729 254.72 725.119 258.37C727.959 261.55 730.819 264.62 733.629 267.63C735.089 265.67 736.569 263.75 738.079 261.88C739.289 260.37 740.559 258.85 741.899 257.3C746.679 251.76 752.199 245.95 758.019 239.83C761.159 236.52 764.399 233.1 767.649 229.6C773.769 223.01 779.959 216.07 785.759 208.73C798.509 192.6 809.399 174.52 813.569 153.99C825.419 181.68 816.719 204.22 800.459 226.29C795.229 233.41 789.199 240.48 782.799 247.65C779.979 250.84 777.059 254.06 774.119 257.3C768.789 263.22 763.339 269.25 758.009 275.48C755.299 278.63 752.649 281.84 750.039 285.11C752.749 288.09 755.269 290.99 757.539 293.82C757.699 294.02 757.859 294.21 758.009 294.41C758.149 294.21 758.309 294.02 758.469 293.82C760.739 291 763.259 288.09 765.969 285.11C770.969 279.59 776.599 273.79 782.389 267.64C785.199 264.63 788.069 261.56 790.899 258.38C796.899 251.69 802.829 244.61 808.149 237.09C817.099 224.45 824.359 210.57 827.489 195.17C837.349 218.2 831.679 237.32 819.389 255.78L819.379 255.77Z" fill="url(#paint0_linear_445_115)"/>
<path d="M758.01 56.76C744.06 86.59 739.04 117.89 757.06 153.98C708.12 112.43 716.64 70.09 741.24 26.73C746.27 17.86 751.98 8.96 758 0C764.02 8.96 769.72 17.86 774.75 26.73C768.5 36.66 762.73 46.62 758 56.76H758.01Z" fill="url(#paint1_linear_445_115)"/>
<path d="M757.688 92.1603C761.297 90.3903 765.227 88.6503 769.477 86.9503C765.627 83.1703 763.678 78.8703 763.638 74.0303C763.598 69.5403 764.828 64.7803 767.328 59.7503C769.828 54.7203 773.007 50.7103 776.847 47.7103C780.687 44.7103 784.597 43.1903 788.557 43.1503C792.977 43.1103 796.637 44.4303 799.557 47.1003C802.467 49.7703 803.947 53.2803 803.987 57.6203C804.007 59.3203 803.727 61.0403 803.157 62.7803C802.587 64.5203 801.817 65.9103 800.847 66.9403C797.967 65.8703 795.898 65.0403 794.648 64.4503L795.347 60.5903C793.037 59.7803 790.858 59.3903 788.818 59.4003C786.098 59.4303 783.197 60.2803 780.117 61.9703C777.037 63.6603 774.057 66.4103 771.188 70.2103C772.457 73.2603 774.337 75.5703 776.807 77.1603C779.277 78.7403 782.948 79.8103 787.828 80.3703C797.398 77.5603 806.557 75.5503 815.307 74.3403C817.367 76.5503 818.408 79.1303 818.438 82.0703C818.457 84.4503 817.687 86.5103 816.117 88.2403C814.547 89.9703 812.198 91.0103 809.068 91.3403L800.177 92.1603C790.667 93.0403 783.657 93.8803 779.157 94.6803C774.647 95.4803 768.288 96.8803 760.078 98.8803L757.688 92.1603Z" fill="url(#paint2_linear_445_115)"/>
<path d="M29.1091 99.6204C30.5591 99.6204 31.8491 99.0504 32.9791 97.9204C34.1091 96.8404 34.6791 95.5504 34.6791 94.0504C34.6791 92.5504 34.1091 91.1904 32.9791 90.0604C31.8491 88.9804 30.5591 88.4404 29.1091 88.4404C27.6591 88.4404 26.3191 88.9804 25.2391 90.0604C24.1091 91.2204 23.5391 92.5504 23.5391 94.0504C23.5391 95.5504 24.1091 96.8704 25.2391 98.0004C26.3691 99.0804 27.6591 99.6204 29.1091 99.6204Z" fill="url(#paint3_linear_445_115)"/>
<path d="M24.65 139.67C24.65 143.33 23.54 146.24 21.33 148.4C19.3 150.45 16.67 151.48 13.43 151.48C8.74001 151.45 4.27 150.07 0 147.33L4.70001 157.96C5.94001 158.57 7.23001 159.08 8.57001 159.5C11.2 160.24 13.65 160.61 15.92 160.61C18.18 160.64 20.45 160.27 22.71 159.5C25.9 158.47 28.52 156.83 30.57 154.56C33.6 151.27 35.11 146.92 35.11 141.52V106.8L24.64 110.2V139.67H24.65Z" fill="url(#paint4_linear_445_115)"/>
<path d="M86.8981 152.27C85.3981 152.27 84.1081 152.81 83.0281 153.89C81.8981 155.05 81.3281 156.38 81.3281 157.88C81.3281 159.38 81.8981 160.7 83.0281 161.83C84.1581 162.91 85.4481 163.45 86.8981 163.45C88.3481 163.45 89.6381 162.88 90.7681 161.75C91.8981 160.67 92.4681 159.38 92.4681 157.88C92.4681 156.38 91.8981 155.02 90.7681 153.89C89.6381 152.81 88.3481 152.27 86.8981 152.27Z" fill="url(#paint5_linear_445_115)"/>
<path d="M129.199 129.4C129.199 133.48 127.119 135.52 122.959 135.52H107.749V130.35C107.779 126.24 107.329 122.87 106.409 120.24C105.379 117.45 103.919 115.08 102.029 113.13C98.2891 109.31 93.4291 107.4 87.4491 107.4C83.1291 107.4 79.0891 108.45 75.3191 110.56C72.8991 111.9 70.7091 113.73 68.7591 116.05L75.2391 122.53C78.7891 118.84 82.8091 117 87.2891 117C91.2391 117.03 94.019 118.87 95.619 122.53C96.649 124.9 97.1591 127.78 97.1591 131.18V135.52H58.5291C57.3991 135.52 56.5691 135.28 56.0391 134.81C55.3791 134.2 55.0491 133.23 55.0491 131.89V91.9502L44.5391 95.3502V133.51C44.5391 136.85 45.4491 139.55 47.2691 141.61C49.3191 143.88 52.3291 145.01 56.2791 145.01H123.309C128.259 145.01 132.199 143.72 135.119 141.14C138.119 138.43 139.619 134.67 139.619 129.88V106.81L129.189 110.21V129.41L129.199 129.4Z" fill="url(#paint6_linear_445_115)"/>
<path d="M126.121 99.6204C127.591 99.6204 128.901 99.0504 130.031 97.9204C131.161 96.8404 131.731 95.5504 131.731 94.0504C131.731 92.5504 131.161 91.1904 130.031 90.0604C128.871 88.9804 127.571 88.4404 126.121 88.4404C124.671 88.4404 123.331 88.9804 122.251 90.0604C121.121 91.2204 120.551 92.5504 120.551 94.0504C120.551 95.5504 121.121 96.8704 122.251 98.0004C123.381 99.0804 124.671 99.6204 126.121 99.6204Z" fill="url(#paint7_linear_445_115)"/>
<path d="M179.37 129.4C179.37 133.48 177.29 135.52 173.13 135.52H169.18V96.8502L158.75 100.25V135.52H151.6L146.66 145H173.44C178.39 145 182.33 143.71 185.25 141.13C188.28 138.42 189.79 134.66 189.79 129.87V91.9502L179.36 95.3502V129.4H179.37Z" fill="url(#paint8_linear_445_115)"/>
<path d="M162.23 156.5C162.23 155.89 162.44 155.35 162.86 154.88C163.2 154.62 163.53 154.46 163.85 154.41C164.69 154.38 165.42 154.67 166.02 155.28L168.67 152.36C167.3 151.02 165.72 150.35 163.93 150.35C161.27 150.35 159.45 151.64 158.48 154.22C158.22 155.06 158.06 156.23 158.01 157.74H156.07L153.82 161.77H168.87V157.74H162.23V156.51V156.5Z" fill="url(#paint9_linear_445_115)"/>
<path d="M199.238 145H209.748V91.96L199.238 95.35V145Z" fill="url(#paint10_linear_445_115)"/>
<path d="M389.751 129.64C389.781 133.56 387.811 135.53 383.861 135.53H377.701V109.58L367.271 112.98V135.53H355.461V112.74L345.031 116.14V135.53H325.601L325.681 106.81L315.171 110.21V135.53H303.121V109.58L292.691 112.98V135.53H280.881V112.82L270.251 116.06V138.77C270.251 142.56 268.881 145.54 266.141 147.7C263.561 149.78 260.161 150.82 255.951 150.82C246.521 150.85 241.321 146.57 240.351 137.98C240.241 136.9 240.191 134.02 240.191 129.33V126.01L229.801 129.09V134.11C229.901 140.19 231.041 145.37 233.201 149.63C234.701 152.63 236.971 155.06 239.991 156.9C244.101 159.37 249.501 160.61 256.191 160.61C261.851 160.61 266.661 159.58 270.611 157.53C273.771 155.87 276.271 153.61 278.121 150.74C278.961 149.4 279.741 147.49 280.451 145.01H384.261C389.321 145.01 393.311 143.55 396.231 140.63C398.861 138 400.181 134.55 400.181 130.28L400.301 106.82L389.751 110.22V129.65V129.64Z" fill="url(#paint11_linear_445_115)"/>
<path d="M415.07 83.11C415.07 82.5 415.28 81.96 415.7 81.49C416.04 81.23 416.37 81.07 416.69 81.02C417.53 81.02 418.26 81.32 418.86 81.93L421.55 79.01C420.15 77.67 418.56 77 416.77 77C414.14 77 412.33 78.29 411.36 80.87C411.1 81.69 410.94 82.85 410.89 84.35H408.91L406.66 88.38H421.71V84.35H415.07V83.13V83.11Z" fill="url(#paint12_linear_445_115)"/>
<path d="M409.738 145H420.248V91.96L409.738 95.35V145Z" fill="url(#paint13_linear_445_115)"/>
<path d="M466.379 100.17C467.829 100.17 469.119 99.6003 470.249 98.4703C471.379 97.3903 471.949 96.1003 471.949 94.6003C471.949 93.1003 471.379 91.7803 470.249 90.6503C469.119 89.5703 467.829 89.0303 466.379 89.0303C464.929 89.0303 463.589 89.5703 462.509 90.6503C461.379 91.7803 460.809 93.1003 460.809 94.6003C460.809 96.1003 461.379 97.4202 462.509 98.5502C463.639 99.6302 464.929 100.17 466.379 100.17Z" fill="url(#paint14_linear_445_115)"/>
<path d="M451.808 100.17C453.278 100.17 454.588 99.6003 455.718 98.4703C456.848 97.3903 457.418 96.1003 457.418 94.6003C457.418 93.1003 456.848 91.7803 455.718 90.6503C454.558 89.5703 453.258 89.0303 451.808 89.0303C450.358 89.0303 449.018 89.5703 447.938 90.6503C446.808 91.7803 446.238 93.1003 446.238 94.6003C446.238 96.1003 446.808 97.4202 447.938 98.5502C449.068 99.6302 450.358 100.17 451.808 100.17Z" fill="url(#paint15_linear_445_115)"/>
<path d="M522.589 114.12C519.219 112.01 515.599 110.96 511.729 110.96C510.549 110.96 509.199 111.01 507.699 111.12L525.239 92.75H511.569L487.549 119.69L493.789 125.18C497.999 121.52 502.559 119.69 507.459 119.69C511.729 119.69 515.179 121.15 517.809 124.07C520.129 126.6 521.289 129.8 521.289 133.67C521.289 133.99 521.259 134.6 521.209 135.53H479.889C477.939 135.56 476.429 135.08 475.349 134.11C474.219 133.08 473.649 131.57 473.649 129.57V107.41H457.889C452.729 107.41 448.659 108.78 445.679 111.52C442.099 114.76 440.309 119.59 440.309 126.02C440.309 132.05 441.799 136.71 444.769 140C447.669 143.34 451.709 145.02 456.899 145.02C459.719 145.02 462.229 144.48 464.439 143.4C465.729 142.74 467.099 141.77 468.549 140.48C471.999 143.51 475.529 145.02 479.139 145.02H531.399C532.109 140.2 532.469 136.53 532.469 134C532.469 130.34 531.959 127.19 530.929 124.56C529.319 120.08 526.549 116.61 522.599 114.13L522.589 114.12ZM463.139 125.93C463.139 126.67 463.059 127.55 462.899 128.58C462.659 130.29 462.389 131.53 462.069 132.29C461.149 134.45 459.449 135.53 456.969 135.53C454.489 135.53 452.719 134.42 451.799 132.21C451.169 130.71 450.849 128.64 450.849 126.01C450.849 123.09 451.269 120.87 452.109 119.37C453.239 117.42 455.239 116.45 458.109 116.45H463.129V125.93H463.139Z" fill="url(#paint16_linear_445_115)"/>
<path d="M631.66 110.2V129.63C631.69 133.55 629.72 135.52 625.77 135.52H619.61V109.57L609.18 112.97V135.52H597.37V112.73L586.94 116.13V135.52H568.53V109.25L558.06 112.65V139.67C558.06 143.33 556.95 146.24 554.74 148.4C552.71 150.45 550.08 151.48 546.84 151.48C542.15 151.45 537.68 150.07 533.41 147.33L538.11 157.96C539.35 158.57 540.64 159.08 541.98 159.5C544.61 160.24 547.06 160.61 549.33 160.61C553.1 160.64 556.57 159.73 559.76 157.89C562.53 156.31 564.68 154.15 566.24 151.41C567.06 149.93 567.73 147.8 568.25 145.01H626.16C631.22 145.01 635.21 143.55 638.13 140.63C640.76 138 642.08 134.55 642.08 130.28L642.2 106.82L631.65 110.22L631.66 110.2Z" fill="url(#paint17_linear_445_115)"/>
<path d="M615.82 96.6901C615.82 98.1901 616.39 99.5201 617.52 100.68C618.65 101.76 619.94 102.3 621.39 102.3C622.84 102.3 624.17 101.73 625.3 100.6C626.43 99.4902 627 98.1901 627 96.6901C627 95.1901 626.43 93.8701 625.3 92.7401C624.14 91.6601 622.84 91.1201 621.39 91.1201C619.94 91.1201 618.6 91.6601 617.52 92.7401C616.39 93.8701 615.82 95.1901 615.82 96.6901Z" fill="url(#paint18_linear_445_115)"/>
<path d="M613.879 89.7402C615.279 89.7402 616.489 89.2303 617.509 88.2003C618.589 87.1203 619.129 85.8802 619.129 84.4902C619.129 83.1002 618.589 81.8003 617.509 80.7803C616.479 79.7503 615.269 79.2402 613.879 79.2402C612.489 79.2402 611.269 79.7503 610.249 80.7803C609.169 81.8603 608.629 83.1002 608.629 84.4902C608.629 85.8802 609.169 87.1203 610.249 88.2003C611.279 89.2303 612.489 89.7402 613.879 89.7402Z" fill="url(#paint19_linear_445_115)"/>
<path d="M606.848 102.3C608.298 102.3 609.588 101.73 610.718 100.6C611.848 99.4902 612.418 98.1901 612.418 96.6901C612.418 95.1901 611.848 93.8701 610.718 92.7401C609.588 91.6601 608.298 91.1201 606.848 91.1201C605.318 91.1201 604.018 91.6601 602.938 92.7401C601.808 93.8701 601.238 95.1901 601.238 96.6901C601.238 98.1901 601.808 99.5201 602.938 100.68C604.098 101.76 605.398 102.3 606.848 102.3Z" fill="url(#paint20_linear_445_115)"/>
<path d="M330.21 215.55H308.29C302.47 215.58 298.05 216.91 295.02 219.54C291.68 222.52 290 226.99 290 232.97V267.57L300.55 264.41V234.98C300.55 231.58 301.25 229.13 302.64 227.63C303.88 226.21 305.87 225.5 308.6 225.5H314.68C313.65 228.03 313.14 230.75 313.14 233.68C313.14 239.45 314.84 244 318.24 247.35C321.27 250.43 325.26 251.97 330.21 251.97C333.63 251.97 336.64 251.22 339.22 249.72C341.48 248.35 343.31 246.48 344.71 244.11C346.42 241.16 347.28 237.71 347.28 233.76C347.28 228.05 345.61 223.52 342.26 220.17C339.18 217.09 335.16 215.55 330.21 215.55ZM335.15 240.79C334.02 242.03 332.35 242.65 330.13 242.65C325.65 242.65 323.42 239.74 323.42 233.92C323.42 231.39 323.85 229.4 324.72 227.96C325.91 225.91 327.74 224.88 330.21 224.88C332.68 224.88 334.56 225.91 335.74 227.96C336.58 229.41 337 231.4 337 233.92C337 237.05 336.38 239.35 335.14 240.79H335.15Z" fill="url(#paint21_linear_445_115)"/>
<path d="M356.75 251.97H367.26V198.92L356.75 202.32V251.97Z" fill="url(#paint22_linear_445_115)"/>
<path d="M448.672 207.14C450.142 207.14 451.452 206.57 452.582 205.44C453.712 204.36 454.282 203.07 454.282 201.57C454.282 200.07 453.712 198.75 452.582 197.62C451.422 196.54 450.122 196 448.672 196C447.222 196 445.882 196.54 444.802 197.62C443.672 198.75 443.102 200.07 443.102 201.57C443.102 203.07 443.672 204.39 444.802 205.52C445.932 206.6 447.222 207.14 448.672 207.14Z" fill="url(#paint23_linear_445_115)"/>
<path d="M434.13 207.14C435.58 207.14 436.87 206.57 438 205.44C439.13 204.36 439.7 203.07 439.7 201.57C439.7 200.07 439.13 198.75 438 197.62C436.87 196.54 435.58 196 434.13 196C432.6 196 431.3 196.54 430.22 197.62C429.09 198.75 428.52 200.07 428.52 201.57C428.52 203.07 429.09 204.39 430.22 205.52C431.38 206.6 432.68 207.14 434.13 207.14Z" fill="url(#paint24_linear_445_115)"/>
<path d="M464.672 209.03C466.122 209.03 467.412 208.46 468.542 207.33C469.672 206.22 470.242 204.92 470.242 203.42C470.242 201.92 469.672 200.6 468.542 199.47C467.412 198.39 466.122 197.85 464.672 197.85C463.222 197.85 461.882 198.39 460.802 199.47C459.672 200.6 459.102 201.92 459.102 203.42C459.102 204.92 459.672 206.25 460.802 207.41C461.932 208.49 463.222 209.03 464.672 209.03Z" fill="url(#paint25_linear_445_115)"/>
<path d="M479.239 209.03C480.689 209.03 481.979 208.46 483.109 207.33C484.239 206.22 484.809 204.92 484.809 203.42C484.809 201.92 484.239 200.6 483.109 199.47C481.979 198.39 480.689 197.85 479.239 197.85C477.709 197.85 476.409 198.39 475.329 199.47C474.199 200.6 473.629 201.92 473.629 203.42C473.629 204.92 474.199 206.25 475.329 207.41C476.489 208.49 477.789 209.03 479.239 209.03Z" fill="url(#paint26_linear_445_115)"/>
<path d="M548.448 236.61C548.478 240.53 546.508 242.5 542.558 242.5H536.398V216.55L525.968 219.95V242.5H514.158V219.71L503.728 223.11V242.5H491.288C489.338 242.53 487.828 242.08 486.748 241.16C485.618 240.08 485.048 238.54 485.048 236.54V216.24L474.618 219.64V236.39C474.618 240.47 472.618 242.51 468.618 242.51H454.828C455.648 241.22 456.268 240.06 456.688 239.03C457.508 236.98 457.908 234.68 457.908 232.16C457.878 227.05 456.498 222.88 453.758 219.64C450.758 216.14 446.608 214.39 441.318 214.39C436.628 214.39 432.848 215.73 429.978 218.42C426.528 221.71 424.808 226.37 424.808 232.4C424.808 236.06 425.808 239.43 427.808 242.51H409.278V229.75C409.278 224.9 407.628 221.02 404.338 218.1C401.548 215.57 398.068 214.31 393.908 214.31C389.058 214.31 384.638 216.14 380.638 219.8V229.6C384.378 225.7 387.998 223.75 391.498 223.75C393.548 223.75 395.248 224.37 396.598 225.61C398.098 226.98 398.848 228.82 398.848 231.14V242.52H380.398L374.238 252H436.768C438.348 252 439.858 251.87 441.308 251.6C442.548 251.86 444.038 252 445.768 252H469.118C473.248 252 476.858 250.68 479.938 248.05C482.988 250.68 486.518 252 490.528 252H542.948C548.008 252 551.998 250.54 554.918 247.62C557.548 244.99 558.868 241.54 558.868 237.27L558.988 213.81L548.438 217.21V236.64L548.448 236.61ZM445.468 239.02C444.418 240.52 443.058 241.68 441.398 242.5C441.238 242.58 440.618 242.24 439.538 241.47C438.798 240.94 438.098 240.27 437.448 239.46C435.818 237.3 434.998 234.76 434.998 231.84C434.998 229.68 435.508 227.88 436.538 226.43C437.728 224.8 439.318 223.98 441.318 223.98C443.268 224.01 444.838 224.74 446.018 226.19C447.148 227.64 447.718 229.5 447.718 231.76C447.718 234.39 446.968 236.82 445.468 239.03V239.02Z" fill="url(#paint27_linear_445_115)"/>
<path d="M581.551 263.47C581.551 262.86 581.761 262.32 582.181 261.85C582.521 261.59 582.851 261.43 583.171 261.38C584.011 261.35 584.741 261.64 585.341 262.25L587.991 259.33C586.621 257.99 585.041 257.32 583.251 257.32C580.591 257.32 578.771 258.61 577.801 261.19C577.541 262.03 577.381 263.2 577.331 264.71H575.391L573.141 268.74H588.191V264.71H581.551V263.48V263.47Z" fill="url(#paint28_linear_445_115)"/>
<path d="M631.758 202.32V236.37C631.758 240.45 629.678 242.49 625.518 242.49H615.368C613.418 242.52 611.908 242.04 610.828 241.07C609.698 240.04 609.128 238.53 609.128 236.53V198.93L598.698 202.33V236.38C598.698 240.46 596.698 242.5 592.698 242.5H588.508V203.83L578.078 207.23V242.5H570.928L565.988 251.98H593.208C597.338 251.98 600.948 250.66 604.028 248.03C607.078 250.66 610.608 251.98 614.618 251.98H625.878C630.828 251.98 634.768 250.69 637.688 248.11C640.688 245.4 642.188 241.64 642.188 236.85V198.93L631.758 202.33V202.32Z" fill="url(#paint29_linear_445_115)"/>
<defs>
<linearGradient id="paint0_linear_445_115" x1="953.719" y1="225.22" x2="580.779" y2="201.08" gradientUnits="userSpaceOnUse">
<stop stop-color="#1D70B7"/>
<stop offset="1" stop-color="#191936"/>
</linearGradient>
<linearGradient id="paint1_linear_445_115" x1="962.46" y1="90.26" x2="589.51" y2="66.11" gradientUnits="userSpaceOnUse">
<stop stop-color="#1D70B7"/>
<stop offset="1" stop-color="#191936"/>
</linearGradient>
<linearGradient id="paint2_linear_445_115" x1="962.918" y1="83.2003" x2="589.967" y2="59.0503" gradientUnits="userSpaceOnUse">
<stop stop-color="#1D70B7"/>
<stop offset="1" stop-color="#191936"/>
</linearGradient>
<linearGradient id="paint3_linear_445_115" x1="-36.9209" y1="38.4405" x2="386.199" y2="394.65" gradientUnits="userSpaceOnUse">
<stop stop-color="#1D70B7"/>
<stop offset="1" stop-color="#191936"/>
</linearGradient>
<linearGradient id="paint4_linear_445_115" x1="-59.63" y1="65.4198" x2="363.48" y2="421.63" gradientUnits="userSpaceOnUse">
<stop stop-color="#1D70B7"/>
<stop offset="1" stop-color="#191936"/>
</linearGradient>
<linearGradient id="paint5_linear_445_115" x1="-44.4017" y1="47.3296" x2="378.718" y2="403.539" gradientUnits="userSpaceOnUse">
<stop stop-color="#1D70B7"/>
<stop offset="1" stop-color="#191936"/>
</linearGradient>
<linearGradient id="paint6_linear_445_115" x1="-25.0609" y1="24.4802" x2="398.049" y2="380.7" gradientUnits="userSpaceOnUse">
<stop stop-color="#1D70B7"/>
<stop offset="1" stop-color="#191936"/>
</linearGradient>
<linearGradient id="paint7_linear_445_115" x1="3.33086" y1="-9.3595" x2="426.441" y2="346.85" gradientUnits="userSpaceOnUse">
<stop stop-color="#1D70B7"/>
<stop offset="1" stop-color="#191936"/>
</linearGradient>
<linearGradient id="paint8_linear_445_115" x1="8.74014" y1="-15.7898" x2="431.86" y2="340.42" gradientUnits="userSpaceOnUse">
<stop stop-color="#1D70B7"/>
<stop offset="1" stop-color="#191936"/>
</linearGradient>
<linearGradient id="paint9_linear_445_115" x1="-13.1596" y1="10.2198" x2="409.96" y2="366.43" gradientUnits="userSpaceOnUse">
<stop stop-color="#1D70B7"/>
<stop offset="1" stop-color="#191936"/>
</linearGradient>
<linearGradient id="paint10_linear_445_115" x1="23.7786" y1="-33.66" x2="446.898" y2="322.549" gradientUnits="userSpaceOnUse">
<stop stop-color="#1D70B7"/>
<stop offset="1" stop-color="#191936"/>
</linearGradient>
<linearGradient id="paint11_linear_445_115" x1="65.0908" y1="-82.7304" x2="488.211" y2="273.49" gradientUnits="userSpaceOnUse">
<stop stop-color="#1D70B7"/>
<stop offset="1" stop-color="#191936"/>
</linearGradient>
<linearGradient id="paint12_linear_445_115" x1="127.88" y1="-157.3" x2="550.99" y2="198.91" gradientUnits="userSpaceOnUse">
<stop stop-color="#1D70B7"/>
<stop offset="1" stop-color="#191936"/>
</linearGradient>
<linearGradient id="paint13_linear_445_115" x1="111.088" y1="-137.37" x2="534.208" y2="218.84" gradientUnits="userSpaceOnUse">
<stop stop-color="#1D70B7"/>
<stop offset="1" stop-color="#191936"/>
</linearGradient>
<linearGradient id="paint14_linear_445_115" x1="144.17" y1="-176.659" x2="567.288" y2="179.55" gradientUnits="userSpaceOnUse">
<stop stop-color="#1D70B7"/>
<stop offset="1" stop-color="#191936"/>
</linearGradient>
<linearGradient id="paint15_linear_445_115" x1="138.128" y1="-169.489" x2="561.247" y2="186.721" gradientUnits="userSpaceOnUse">
<stop stop-color="#1D70B7"/>
<stop offset="1" stop-color="#191936"/>
</linearGradient>
<linearGradient id="paint16_linear_445_115" x1="141.119" y1="-173.03" x2="564.229" y2="183.18" gradientUnits="userSpaceOnUse">
<stop stop-color="#1D70B7"/>
<stop offset="1" stop-color="#191936"/>
</linearGradient>
<linearGradient id="paint17_linear_445_115" x1="176.9" y1="-215.53" x2="600.01" y2="140.68" gradientUnits="userSpaceOnUse">
<stop stop-color="#1D70B7"/>
<stop offset="1" stop-color="#191936"/>
</linearGradient>
<linearGradient id="paint18_linear_445_115" x1="207.428" y1="-251.8" x2="630.538" y2="104.412" gradientUnits="userSpaceOnUse">
<stop stop-color="#1D70B7"/>
<stop offset="1" stop-color="#191936"/>
</linearGradient>
<linearGradient id="paint19_linear_445_115" x1="210.329" y1="-255.25" x2="633.449" y2="100.96" gradientUnits="userSpaceOnUse">
<stop stop-color="#1D70B7"/>
<stop offset="1" stop-color="#191936"/>
</linearGradient>
<linearGradient id="paint20_linear_445_115" x1="201.389" y1="-244.62" x2="624.498" y2="111.59" gradientUnits="userSpaceOnUse">
<stop stop-color="#1D70B7"/>
<stop offset="1" stop-color="#191936"/>
</linearGradient>
<linearGradient id="paint21_linear_445_115" x1="98" y1="60.1998" x2="521.11" y2="416.41" gradientUnits="userSpaceOnUse">
<stop stop-color="#1D70B7"/>
<stop offset="1" stop-color="#191936"/>
</linearGradient>
<linearGradient id="paint22_linear_445_115" x1="126.09" y1="26.83" x2="549.2" y2="383.04" gradientUnits="userSpaceOnUse">
<stop stop-color="#1D70B7"/>
<stop offset="1" stop-color="#191936"/>
</linearGradient>
<linearGradient id="paint23_linear_445_115" x1="173.812" y1="-29.8503" x2="596.922" y2="326.359" gradientUnits="userSpaceOnUse">
<stop stop-color="#1D70B7"/>
<stop offset="1" stop-color="#191936"/>
</linearGradient>
<linearGradient id="paint24_linear_445_115" x1="167.76" y1="-22.6703" x2="590.88" y2="333.539" gradientUnits="userSpaceOnUse">
<stop stop-color="#1D70B7"/>
<stop offset="1" stop-color="#191936"/>
</linearGradient>
<linearGradient id="paint25_linear_445_115" x1="179.511" y1="-36.6203" x2="602.621" y2="319.59" gradientUnits="userSpaceOnUse">
<stop stop-color="#1D70B7"/>
<stop offset="1" stop-color="#191936"/>
</linearGradient>
<linearGradient id="paint26_linear_445_115" x1="185.549" y1="-43.8002" x2="608.659" y2="312.42" gradientUnits="userSpaceOnUse">
<stop stop-color="#1D70B7"/>
<stop offset="1" stop-color="#191936"/>
</linearGradient>
<linearGradient id="paint27_linear_445_115" x1="165.818" y1="-20.3704" x2="588.938" y2="335.85" gradientUnits="userSpaceOnUse">
<stop stop-color="#1D70B7"/>
<stop offset="1" stop-color="#191936"/>
</linearGradient>
<linearGradient id="paint28_linear_445_115" x1="197.741" y1="-58.2792" x2="620.86" y2="297.931" gradientUnits="userSpaceOnUse">
<stop stop-color="#1D70B7"/>
<stop offset="1" stop-color="#191936"/>
</linearGradient>
<linearGradient id="paint29_linear_445_115" x1="226.499" y1="-92.4403" x2="649.608" y2="263.769" gradientUnits="userSpaceOnUse">
<stop stop-color="#1D70B7"/>
<stop offset="1" stop-color="#191936"/>
</linearGradient>
</defs>
</svg>
