<svg width="228" height="220" viewBox="0 0 228 220" fill="none" xmlns="http://www.w3.org/2000/svg">
<path fill-rule="evenodd" clip-rule="evenodd" d="M101.655 1.39277C89.1257 4.09377 75.8777 12.5568 70.5497 21.2638C69.5637 22.8758 67.7217 24.3518 66.4557 24.5438C60.5907 25.4358 58.1427 33.4678 62.3367 38.0558L64.4187 40.3328L48.1827 100.637C39.2527 133.804 31.5437 161.302 31.0507 161.743C30.5577 162.184 27.4547 163.622 24.1547 164.939C20.6507 166.337 16.4237 169.054 13.9917 171.47C10.4647 174.974 9.27173 177.327 6.19373 186.848C1.64873 200.908 -1.23928 217.339 0.523724 219.102C2.29372 220.872 3.28973 218.778 4.10573 211.566C5.11373 202.657 9.34773 187.263 12.7517 180.13C16.2817 172.733 18.5267 171.188 36.2877 163.933C42.8147 161.266 54.7407 156.375 62.7907 153.064L77.4267 147.043L80.2907 148.923C83.7147 151.17 91.5327 154.322 97.4047 155.823L101.655 156.91V186.813C101.655 215.984 102.155 220.811 104.751 216.711C105.232 215.953 105.63 202.283 105.638 186.333L105.651 157.333L112.174 157.669C121.331 158.141 133.759 155.424 142.758 150.983L150.362 147.23L177.349 158.352C192.192 164.468 205.975 170.486 207.979 171.724C210.54 173.307 212.499 175.817 214.584 180.184C217.966 187.27 222.199 202.682 223.204 211.566C224.02 218.778 225.016 220.872 226.786 219.102C228.549 217.339 225.661 200.908 221.116 186.848C218.038 177.327 216.845 174.974 213.318 171.47C210.886 169.054 206.659 166.337 203.155 164.939C199.855 163.622 196.799 162.231 196.364 161.848C195.929 161.464 188.242 133.967 179.283 100.742L162.993 40.3328L165.024 38.0558C169.121 33.4608 166.69 25.4308 160.936 24.5568C159.716 24.3708 157.413 22.4188 155.818 20.2168C149.217 11.1048 137.582 3.98477 124.901 1.29677C116.605 -0.46123 110.132 -0.434229 101.655 1.39277ZM126.195 5.36477C129.473 6.20677 134.604 8.11977 137.598 9.61477C143.046 12.3358 152.369 20.2398 152.882 22.5728C153.096 23.5438 144.561 23.8198 113.655 23.8418C82.2537 23.8648 74.2107 23.6108 74.4277 22.6018C74.9377 20.2298 84.5897 12.0118 89.8827 9.44277C101.263 3.91977 114.701 2.41077 126.195 5.36477ZM162.455 29.0328C163.998 30.5758 163.998 34.0898 162.455 35.6328C160.727 37.3608 66.5827 37.3608 64.8547 35.6328C63.3117 34.0898 63.3117 30.5758 64.8547 29.0328C66.5827 27.3048 160.727 27.3048 162.455 29.0328ZM159.024 40.6208C160.014 42.2228 190.688 157.376 190.426 158.509C190.18 159.575 153.865 145.354 151.897 143.422C151.489 143.021 150.206 139.912 149.046 136.513C147.592 132.255 146.443 130.373 145.349 130.463C143.711 130.597 143.316 129.374 142.157 120.578C141.631 116.583 142.21 113.865 145.78 103.578L150.028 91.3328L150.092 74.7648L150.155 58.1968L147.36 54.5228C145.823 52.5018 143.35 50.5438 141.866 50.1708C140.381 49.7978 133.394 50.4338 126.338 51.5848L113.51 53.6758L100.023 51.5588C87.0697 49.5268 86.4057 49.5118 83.2747 51.1978C77.0247 54.5638 76.1457 57.4668 76.2257 74.4798C76.2967 89.5008 76.3327 89.7388 80.6087 103.076C84.5577 115.393 84.8617 117.076 84.2187 123.08C83.6837 128.076 83.1057 129.743 81.7887 130.088C80.6817 130.377 79.3857 132.769 78.1847 136.734C77.1527 140.141 75.8247 143.241 75.2317 143.622C72.1027 145.638 37.1107 159.562 36.8657 158.889C36.6277 158.239 66.6407 45.1668 68.1347 41.0828C68.4917 40.1078 78.4967 39.8328 113.565 39.8328C138.299 39.8328 158.756 40.1868 159.024 40.6208ZM102.49 55.5018C113.134 57.0908 114.474 57.0908 124.49 55.5028C138.228 53.3258 141.195 53.3728 143.63 55.8078C146.59 58.7678 146.946 61.5808 146.392 77.6378C145.912 91.5668 145.674 92.9478 141.823 104.13C137.158 117.676 135.011 121.561 130.139 125.277C124.769 129.373 119.733 131.076 112.979 131.08C105.393 131.084 99.7987 128.594 93.9067 122.59C90.3307 118.946 89.0007 116.281 85.0377 104.819C80.4397 91.5178 80.3697 91.1258 79.8807 75.8208L79.3857 60.3058L82.1097 57.0688C85.3537 53.2128 86.5437 53.1208 102.49 55.5018ZM92.3267 126.303C98.4947 132.293 103.936 134.336 113.655 134.311C123.176 134.287 127.598 132.589 134.581 126.281C138.354 122.872 138.427 122.853 139.022 125.074C139.355 126.316 139.634 128.734 139.641 130.446C139.654 133.297 139.138 133.792 133.526 136.311C120.536 142.14 106.027 142.003 93.0467 135.929C88.0457 133.589 86.5867 132.452 87.0467 131.253C87.3807 130.382 87.6547 128.131 87.6547 126.251C87.6547 124.371 87.9017 122.833 88.2047 122.833C88.5067 122.833 90.3617 124.395 92.3267 126.303ZM99.1547 142.298C114.142 145.937 128.664 143.972 141.299 136.596L144.442 134.761L146.052 139.486C147.892 144.884 148.063 144.64 139.789 148.444C131.997 152.026 123.329 153.803 113.655 153.803C103.981 153.803 95.3127 152.026 87.5207 148.444C79.4757 144.745 79.4617 144.729 80.7307 140.767C81.3357 138.878 82.0007 136.775 82.2077 136.093C82.4687 135.232 84.6597 135.88 89.3697 138.211C93.1017 140.059 97.5047 141.898 99.1547 142.298ZM112.695 176.285C110.812 178.554 111.839 181.333 114.56 181.333C117.714 181.333 119.501 178.557 117.725 176.417C116.087 174.443 114.263 174.395 112.695 176.285ZM113.405 197.913C111.079 199.268 111.178 202.507 113.586 203.796C115.043 204.576 115.901 204.444 117.086 203.26C117.949 202.396 118.655 201.304 118.655 200.833C118.655 200.106 115.866 196.773 115.334 196.863C115.235 196.88 114.368 197.352 113.405 197.913ZM151.065 200.206C150.766 200.985 150.664 203.357 150.838 205.478C151.271 210.741 154.032 210.821 154.465 205.583L154.776 201.833H170.715H186.655V205.274C186.655 209.031 188.351 210.898 189.778 208.711C190.272 207.953 190.559 205.533 190.416 203.333L190.155 199.333L170.882 199.061C154.997 198.837 151.513 199.039 151.065 200.206Z" fill="black"/>
</svg>
