<svg xmlns="http://www.w3.org/2000/svg" version="1.1" xmlns:xlink="http://www.w3.org/1999/xlink" width="512" height="512" x="0" y="0" viewBox="0 0 24 24" style="enable-background:new 0 0 512 512" xml:space="preserve" class=""><g><g fill="#000" fill-rule="evenodd" clip-rule="evenodd"><path d="M.5 5.857C.5 4.565 1.528 3.5 2.818 3.5h16.364c1.29 0 2.318 1.065 2.318 2.357V11a.5.5 0 0 1-1 0V5.857c0-.76-.6-1.357-1.318-1.357H2.818C2.1 4.5 1.5 5.098 1.5 5.857v9.286c0 .76.6 1.357 1.318 1.357H10a.5.5 0 0 1 0 1H2.818C1.528 17.5.5 16.435.5 15.143z" fill="#FFFFFF" opacity="1" data-original="#000000" class=""></path><path d="M.5 7a.5.5 0 0 1 .5-.5h20a.5.5 0 0 1 0 1H1A.5.5 0 0 1 .5 7zM2.5 12a.5.5 0 0 1 .5-.5h2a.5.5 0 0 1 0 1H3a.5.5 0 0 1-.5-.5zM2.5 14.5A.5.5 0 0 1 3 14h4a.5.5 0 0 1 0 1H3a.5.5 0 0 1-.5-.5zM18 13.5a4.5 4.5 0 1 0 0 9 4.5 4.5 0 0 0 0-9zM12.5 18a5.5 5.5 0 1 1 11 0 5.5 5.5 0 0 1-11 0z" fill="#FFFFFF" opacity="1" data-original="#000000" class=""></path><path d="M19.646 17.146a.5.5 0 0 1 .708.708l-2 2a.5.5 0 0 1-.708 0l-1.5-1.5a.5.5 0 0 1 .708-.708L18 18.793z" fill="#FFFFFF" opacity="1" data-original="#000000" class=""></path></g></g></svg>