<svg width="165" height="253" viewBox="0 0 165 253" fill="none" xmlns="http://www.w3.org/2000/svg">
<path fill-rule="evenodd" clip-rule="evenodd" d="M59.7641 0.974546C36.9921 5.31655 20.2131 21.3055 12.6301 45.8875C9.04209 57.5185 8.46009 64.4775 7.52709 106.927C6.74009 142.749 6.29509 150.265 4.07909 165.241C-1.15091 200.58 -1.32391 216.354 3.40009 227.034C7.50309 236.309 16.9611 244.017 28.7961 247.731C38.7791 250.864 70.6631 252.961 87.7291 251.607C116.466 249.328 141.454 242.042 152.51 232.72C155.766 229.975 156.016 229.351 156.097 223.774C156.165 219.156 156.703 217.12 158.438 214.913C166.365 204.837 166.161 193.15 157.516 162.049C150.399 136.448 147.525 121.077 143.024 84.5485C139.106 52.7455 137.927 47.8395 131.068 34.7945C122.532 18.5595 107.734 6.47755 90.9821 2.06655C82.4441 -0.181454 68.4041 -0.672454 59.7641 0.974546ZM94.7901 7.88355C112.805 14.7865 125.718 29.0275 132.526 49.4995C134.581 55.6785 136.094 64.0095 137.984 79.5485C142.691 118.237 146.243 138.17 152.102 158.767C157.594 178.074 158.682 183.33 159.212 193.126C159.686 201.886 159.487 203.813 157.69 207.876C156.553 210.446 155.259 212.549 154.815 212.549C154.37 212.549 152.95 210.558 151.659 208.124C148.765 202.669 139.615 193.301 135.077 191.148C130.317 188.889 122.061 189.104 116.859 191.622C111.453 194.239 104.449 201.886 94.4091 216.131C80.4591 235.926 73.6141 241.784 60.5101 245.139C49.6501 247.919 32.8941 245.835 22.1611 240.368C16.1391 237.3 9.95809 230.992 7.37309 225.276C5.17209 220.408 5.01609 218.881 5.09709 203.049C5.16509 189.799 5.78609 182.189 7.91509 168.549C10.3371 153.033 10.8031 145.891 12.0251 105.549C13.0111 73.0235 13.8311 58.1945 14.9011 53.5485C19.0191 35.6665 26.4461 23.2905 38.0311 15.0055C49.5691 6.75455 57.9371 4.51155 75.5101 4.96355C86.0711 5.23555 89.0621 5.68755 94.7901 7.88355ZM89.9991 44.5665C89.6531 45.1255 90.6921 47.2635 92.3071 49.3165C98.4491 57.1215 101.914 65.8885 103.534 77.7245C104.614 85.6125 104.004 102.574 102.642 102.527C102.294 102.515 100.974 99.2515 99.7081 95.2765C96.6031 85.5305 83.6301 64.0595 76.5951 57.0245C73.5351 53.9645 68.5521 50.2435 65.5211 48.7555C60.7631 46.4185 58.7801 46.0495 51.0101 46.0575C43.1831 46.0655 41.3421 46.4175 36.8871 48.7605C23.5291 55.7825 15.6461 72.6965 15.5451 94.5545C15.4941 105.475 18.1851 126.673 20.4341 133.072C27.0741 151.965 47.1171 162.771 66.9071 158.128C81.3461 154.74 94.0751 145.058 99.4651 133.364C101.065 129.891 103.604 121.649 105.106 115.049C108.587 99.7565 109.066 78.0645 106.155 67.6195C102.232 53.5495 92.7821 40.0635 89.9991 44.5665ZM64.1881 53.0945C70.4311 56.1455 78.4581 64.6125 84.1321 74.1325C86.3981 77.9365 88.1841 81.1375 88.1001 81.2465C88.0161 81.3555 84.9741 80.9345 81.3401 80.3125C71.1091 78.5595 58.6521 82.0905 62.2771 85.7155C63.0521 86.4905 64.2711 86.4785 66.5831 85.6725C73.6491 83.2095 90.3151 85.0895 92.5861 88.6065C93.0981 89.3995 94.6991 93.6485 96.1431 98.0485C99.9571 109.669 100.016 122.741 96.2901 130.785C92.5791 138.797 85.1741 145.853 75.7571 150.35C68.3461 153.889 67.5551 154.049 57.5101 154.049C48.0811 154.049 46.4981 153.779 41.9901 151.399C35.8441 148.154 28.0391 139.999 25.4261 134.093C21.1771 124.487 18.7101 93.4535 22.0921 92.1555C25.6981 90.7715 26.4021 91.4795 26.7081 96.7985L27.0101 102.049H30.5101C33.9101 102.049 34.0191 101.928 34.3161 97.8205C34.5811 94.1675 34.9161 93.6235 36.7751 93.8205C40.0631 94.1685 40.1191 90.9935 36.8641 88.8615C34.8111 87.5175 32.3271 87.0795 27.2631 87.1675C22.6201 87.2485 20.5511 86.9285 20.8071 86.1675C21.1641 85.1075 32.4221 84.8025 38.4791 85.6875C40.1441 85.9305 41.0541 85.5245 41.2751 84.4385C41.7711 81.9995 36.0111 80.0755 28.1711 80.0605L21.3321 80.0485L21.8411 76.9065C23.5041 66.6265 33.5551 53.8665 42.1501 51.1205C48.6641 49.0395 57.5111 49.8325 64.1881 53.0945ZM122.098 69.4055C121.807 69.8775 122.008 72.9145 122.544 76.1555C123.081 79.3965 123.788 87.2235 124.115 93.5485C125.87 127.479 113.497 153.366 90.7991 163.254C84.7711 165.881 82.9731 168.022 85.8651 169.132C87.9451 169.93 97.3311 165.351 104.01 160.279C114.255 152.499 121.686 140.658 125.682 125.745C129.152 112.791 129.268 81.7965 125.89 70.2985C125.353 68.4735 123.015 67.9225 122.098 69.4055ZM70.8861 87.6345C66.8871 88.7945 64.7541 91.1925 66.3251 92.7635C67.1661 93.6045 68.1161 93.5935 70.0301 92.7215C73.9171 90.9505 74.4331 91.2475 73.8391 94.9115C73.0261 99.9175 74.9141 102.736 78.8261 102.357C81.8621 102.063 82.0241 101.829 82.3141 97.3195C82.5831 93.1255 82.8661 92.6175 84.8141 92.8195C86.4091 92.9855 87.0101 92.5095 87.0101 91.0805C87.0101 87.6945 77.6081 85.6855 70.8861 87.6345ZM44.6941 112.2C45.3641 117.818 55.5101 120.941 55.5101 115.53C55.5101 113.982 54.8331 113.549 52.4161 113.549C50.1641 113.549 49.1811 113.005 48.8001 111.549C48.5021 110.412 47.4361 109.549 46.3271 109.549C44.8051 109.549 44.4471 110.13 44.6941 112.2ZM44.1981 126.195C41.7711 128.621 47.5651 133.538 52.8591 133.545C56.4771 133.55 62.1691 130.88 62.9651 128.805C64.0811 125.896 61.9111 125.372 57.7451 127.543C53.8131 129.593 53.5861 129.603 49.8531 127.904C47.7391 126.942 45.7571 126.009 45.4481 125.831C45.1381 125.653 44.5761 125.817 44.1981 126.195ZM84.5391 182.013C81.8621 185.24 72.3611 190.613 64.9131 193.113C57.9911 195.437 55.8051 195.713 46.9191 195.384C37.8611 195.048 36.3641 194.718 32.5881 192.219C30.2691 190.685 27.4591 187.881 26.3421 185.989C23.9471 181.93 21.5101 181.455 21.5101 185.046C21.5101 188.339 27.4821 194.873 32.8821 197.487C42.7581 202.268 60.4151 200.826 74.0101 194.128C85.1981 188.616 93.2911 180.549 87.6321 180.549C86.6001 180.549 85.2081 181.208 84.5391 182.013Z" fill="black"/>
</svg>
